<?xml version="1.0" encoding="utf-8"?>
<!-- Generator: Adobe Illustrator 26.3.1, SVG Export Plug-In . SVG Version: 6.00 Build 0)  -->
<svg version="1.1" id="Layer_1" xmlns="http://www.w3.org/2000/svg" xmlns:xlink="http://www.w3.org/1999/xlink" x="0px" y="0px"
	 viewBox="0 0 792 612" style="enable-background:new 0 0 792 612;" xml:space="preserve">
<style type="text/css">
	.st0{fill:#03004F;}
	.st1{clip-path:url(#SVGID_00000042701662978762088340000014082721707188755622_);fill:#FF9600;}
	.st2{fill:#FF002B;}
	.st3{clip-path:url(#SVGID_00000027595045263687175910000000611356291435324844_);fill:#FF002B;}
	.st4{clip-path:url(#SVGID_00000027595045263687175910000000611356291435324844_);fill:#03004F;}
	.st5{clip-path:url(#SVGID_00000020395757170966325460000014510497417044454334_);fill:#03004F;}
	.st6{clip-path:url(#SVGID_00000147220353462960594680000003160329264371792027_);fill:#03004F;}
	.st7{clip-path:url(#SVGID_00000056386559365688538740000009982113748671499451_);fill:#03004F;}
</style>
<rect x="251.32" y="235.99" transform="matrix(0.866 -0.5 0.5 0.866 -118.4444 171.0459)" class="st0" width="17.28" height="141.12"/>
<g>
	<defs>
		<rect id="SVGID_1_" x="215.81" y="241.03" width="361.39" height="130.95"/>
	</defs>
	<clipPath id="SVGID_00000134248013001805432200000002166177977416710590_">
		<use xlink:href="#SVGID_1_"  style="overflow:visible;"/>
	</clipPath>
	<path style="clip-path:url(#SVGID_00000134248013001805432200000002166177977416710590_);fill:#FF9600;" d="M232.56,360.81
		c-8.79-12.61-5.7-29.95,6.9-38.75c12.61-8.79,29.96-5.7,38.75,6.9L232.56,360.81z"/>
</g>
<rect x="215.81" y="241.03" class="st2" width="17.28" height="119.79"/>
<g>
	<defs>
		<rect id="SVGID_00000075127116559637718830000000787631325047691930_" x="215.81" y="241.03" width="361.39" height="130.95"/>
	</defs>
	<clipPath id="SVGID_00000090990155758577781240000000442279600590646199_">
		<use xlink:href="#SVGID_00000075127116559637718830000000787631325047691930_"  style="overflow:visible;"/>
	</clipPath>
	<path style="clip-path:url(#SVGID_00000090990155758577781240000000442279600590646199_);fill:#FF002B;" d="M257.89,298.02
		c-8.79-12.61-5.7-29.95,6.9-38.75c12.61-8.79,29.95-5.7,38.75,6.9L257.89,298.02z"/>
	<path style="clip-path:url(#SVGID_00000090990155758577781240000000442279600590646199_);fill:#03004F;" d="M326.09,321.69v-19.42
		l-14.89-23.14h13.32l5.73,10.96c0.04,0.06,0.1,0.17,0.17,0.32c0.6,1.14,1.02,2.24,1.25,3.29c0.19-0.95,0.61-2.01,1.25-3.17
		c0.12-0.21,0.19-0.36,0.23-0.44l5.67-10.96h13.35l-14.89,23.14v19.42H326.09z"/>
	<path style="clip-path:url(#SVGID_00000090990155758577781240000000442279600590646199_);fill:#03004F;" d="M374.01,313
		c3.22,0,5.88-1.18,7.98-3.55c2.1-2.36,3.16-5.35,3.16-8.95c0-3.57-1.07-6.54-3.2-8.93c-2.13-2.38-4.78-3.58-7.94-3.58
		c-3.22,0-5.88,1.19-7.98,3.56c-2.1,2.38-3.15,5.36-3.15,8.94c0,3.64,1.04,6.64,3.11,8.98C368.06,311.83,370.74,313,374.01,313
		 M396.75,300.5c0,3.06-0.56,5.93-1.69,8.61c-1.12,2.68-2.76,5.07-4.91,7.18c-2.17,2.09-4.65,3.71-7.44,4.84
		c-2.79,1.13-5.69,1.7-8.69,1.7c-3.04,0-5.96-0.57-8.74-1.7c-2.78-1.13-5.23-2.75-7.34-4.84c-2.19-2.11-3.85-4.52-4.99-7.21
		c-1.13-2.69-1.7-5.55-1.7-8.58c0-3.04,0.57-5.91,1.7-8.59s2.8-5.08,4.99-7.2c2.11-2.09,4.56-3.71,7.34-4.84
		c2.78-1.13,5.69-1.7,8.74-1.7c3.02,0,5.94,0.57,8.74,1.7s5.27,2.75,7.4,4.84c2.13,2.09,3.76,4.49,4.9,7.18
		C396.18,294.58,396.75,297.45,396.75,300.5"/>
	<path style="clip-path:url(#SVGID_00000090990155758577781240000000442279600590646199_);fill:#03004F;" d="M405.91,307.94
		c1.73,1.96,3.43,3.42,5.1,4.39c1.68,0.97,3.35,1.45,5.02,1.45c1.55,0,2.83-0.42,3.82-1.25c1-0.83,1.5-1.89,1.5-3.17
		c0-1.42-0.43-2.51-1.29-3.27c-0.86-0.77-2.82-1.56-5.86-2.37c-4.17-1.12-7.11-2.59-8.84-4.39c-1.73-1.8-2.59-4.27-2.59-7.41
		c0-4.07,1.36-7.39,4.09-9.96c2.72-2.57,6.26-3.85,10.6-3.85c2.35,0,4.57,0.32,6.67,0.95c2.1,0.63,4.1,1.59,5.98,2.86l-3.63,8.35
		c-1.32-1.12-2.67-1.97-4.06-2.54c-1.39-0.57-2.76-0.86-4.12-0.86c-1.39,0-2.53,0.33-3.4,1c-0.87,0.67-1.31,1.53-1.31,2.57
		c0,1.07,0.38,1.92,1.15,2.56c0.77,0.64,2.24,1.25,4.43,1.83l0.52,0.14c4.73,1.28,7.84,2.68,9.33,4.22c1.01,1.05,1.77,2.3,2.3,3.76
		c0.52,1.46,0.79,3.09,0.79,4.87c0,4.52-1.48,8.15-4.45,10.89c-2.97,2.74-6.92,4.11-11.86,4.11c-2.97,0-5.66-0.5-8.1-1.51
		c-2.43-1.01-4.77-2.59-7.02-4.74L405.91,307.94z"/>
</g>
<polygon class="st0" points="438.62,321.69 438.62,279.12 450.22,279.12 450.22,295.67 465.69,295.67 465.69,279.12 477.32,279.12 
	477.32,321.69 465.69,321.69 465.69,304.36 450.22,304.36 450.22,321.69 "/>
<rect x="486.65" y="279.12" class="st0" width="11.72" height="42.57"/>
<polygon class="st0" points="513.87,321.69 513.87,289.18 504.33,289.18 504.33,279.12 535,279.12 535,289.18 525.47,289.18 
	525.47,321.69 "/>
<g>
	<defs>
		<rect id="SVGID_00000050655053259062122190000002338666417728028596_" x="215.81" y="241.03" width="361.39" height="130.95"/>
	</defs>
	<clipPath id="SVGID_00000083071298639859321260000014649357835544179344_">
		<use xlink:href="#SVGID_00000050655053259062122190000002338666417728028596_"  style="overflow:visible;"/>
	</clipPath>
	<path style="clip-path:url(#SVGID_00000083071298639859321260000014649357835544179344_);fill:#03004F;" d="M549.51,305.79h11.54
		l-4.33-14.04c-0.14-0.43-0.32-1.12-0.55-2.07c-0.23-0.95-0.53-2.17-0.9-3.66c-0.25,1.05-0.5,2.04-0.74,2.99
		c-0.24,0.95-0.49,1.86-0.74,2.73L549.51,305.79z M533.26,321.69l14.68-42.57h14.54l14.71,42.57h-11.54l-2.15-7.62h-16.49
		l-2.21,7.62H533.26z"/>
	<path style="clip-path:url(#SVGID_00000083071298639859321260000014649357835544179344_);fill:#03004F;" d="M385.25,338.83
		c-0.59-0.5-1.22-0.88-1.88-1.13c-0.66-0.25-1.35-0.38-2.08-0.38c-1.41,0-2.55,0.45-3.43,1.35s-1.32,2.07-1.32,3.51
		c0,1.39,0.43,2.53,1.29,3.44c0.86,0.9,1.94,1.35,3.25,1.35c0.76,0,1.49-0.14,2.18-0.4c0.69-0.27,1.35-0.68,1.98-1.22v2.36
		c-0.56,0.4-1.17,0.71-1.84,0.9c-0.66,0.2-1.38,0.3-2.15,0.3c-0.98,0-1.89-0.16-2.73-0.48c-0.83-0.32-1.57-0.8-2.2-1.42
		c-0.63-0.62-1.11-1.34-1.45-2.18c-0.34-0.83-0.51-1.72-0.51-2.67c0-0.94,0.17-1.83,0.51-2.66c0.34-0.83,0.82-1.56,1.46-2.18
		c0.64-0.63,1.37-1.11,2.2-1.44c0.83-0.32,1.72-0.49,2.68-0.49c0.76,0,1.48,0.11,2.16,0.33c0.68,0.22,1.35,0.55,2,1L385.25,338.83z"
		/>
	<path style="clip-path:url(#SVGID_00000083071298639859321260000014649357835544179344_);fill:#03004F;" d="M398.94,341.19h0.38
		c1.11,0,1.84-0.13,2.21-0.39c0.36-0.26,0.54-0.71,0.54-1.37c0-0.71-0.2-1.21-0.58-1.5c-0.39-0.29-1.11-0.44-2.17-0.44h-0.38V341.19
		z M398.8,342.81v5.76h-1.96V335.7h2.92c0.85,0,1.52,0.05,1.99,0.17c0.47,0.11,0.88,0.29,1.21,0.55c0.4,0.31,0.71,0.71,0.92,1.2
		c0.22,0.49,0.32,1.03,0.32,1.62c0,1.03-0.25,1.84-0.75,2.42c-0.5,0.58-1.23,0.93-2.21,1.05l4.43,5.85h-2.36l-4.28-5.76H398.8z"/>
</g>
<polygon class="st0" points="415.93,348.57 415.93,335.7 423.11,335.7 423.11,337.48 418.02,337.48 418.02,340.7 423.11,340.7 
	423.11,342.54 418.02,342.54 418.02,346.7 423.11,346.7 423.11,348.57 "/>
<g>
	<defs>
		<rect id="SVGID_00000033334744155456690150000006099742760808861606_" x="215.81" y="241.03" width="361.39" height="130.95"/>
	</defs>
	<clipPath id="SVGID_00000118398468658930706180000009694038302299969667_">
		<use xlink:href="#SVGID_00000033334744155456690150000006099742760808861606_"  style="overflow:visible;"/>
	</clipPath>
	<path style="clip-path:url(#SVGID_00000118398468658930706180000009694038302299969667_);fill:#03004F;" d="M437.22,343.51h3.58
		l-1.32-2.93c-0.08-0.19-0.15-0.4-0.24-0.65c-0.08-0.24-0.16-0.51-0.25-0.81c-0.07,0.28-0.15,0.54-0.23,0.79
		c-0.08,0.24-0.16,0.47-0.24,0.67L437.22,343.51z M443,348.57l-1.46-3.31h-5.1l-1.49,3.31h-2.2l6.23-13.38l6.22,13.38H443z"/>
</g>
<polygon class="st0" points="458.6,337.48 458.6,348.57 456.5,348.57 456.5,337.48 453.09,337.48 453.09,335.7 462,335.7 
	462,337.48 "/>
<rect x="472.63" y="335.7" class="st0" width="2.09" height="12.87"/>
<g>
	<defs>
		<rect id="SVGID_00000150078696204898861750000004913444668864548510_" x="215.81" y="241.03" width="361.39" height="130.95"/>
	</defs>
	<clipPath id="SVGID_00000173126138193795788320000006300083704948052611_">
		<use xlink:href="#SVGID_00000150078696204898861750000004913444668864548510_"  style="overflow:visible;"/>
	</clipPath>
	<path style="clip-path:url(#SVGID_00000173126138193795788320000006300083704948052611_);fill:#03004F;" d="M490.82,349.07
		l-5.74-13.37h2.17l2.88,6.86c0.17,0.4,0.31,0.77,0.42,1.1c0.11,0.34,0.2,0.66,0.26,0.96c0.08-0.32,0.17-0.66,0.29-1
		c0.12-0.35,0.26-0.7,0.41-1.06l2.87-6.86h2.16L490.82,349.07z"/>
</g>
<polygon class="st0" points="506.86,348.57 506.86,335.7 514.04,335.7 514.04,337.48 508.95,337.48 508.95,340.7 514.04,340.7 
	514.04,342.54 508.95,342.54 508.95,346.7 514.04,346.7 514.04,348.57 "/>
<g>
</g>
<g>
</g>
<g>
</g>
<g>
</g>
<g>
</g>
<g>
</g>
</svg>
