<?xml version="1.0" encoding="UTF-8"?><svg id="Layer_2" xmlns="http://www.w3.org/2000/svg" viewBox="0 0 88.47 88.47"><defs><style>.cls-1{fill:#fff;}.cls-2{fill:#02004f;}</style></defs><g id="Layer_1-2"><g><rect class="cls-2" width="88.47" height="88.47" rx="12.55" ry="12.55"/><g><path class="cls-1" d="M38.88,56.13c1.09-.23,2.04-.65,2.84-1.26,.71-.53,1.3-1.19,1.78-1.97,.74-1.18,1.12-2.52,1.12-4.01s-.33-2.67-.98-3.68c-.65-1.01-1.62-1.75-2.9-2.22,.84-.43,1.48-.91,1.92-1.43,.77-.93,1.16-2.16,1.16-3.7s-.39-2.77-1.15-3.83c-1.28-1.74-3.45-2.63-6.51-2.67h-12.14v25.11h11.32c1.27,0,2.46-.11,3.55-.34Zm-9.86-20.41h5.46c1.2,0,2.19,.13,2.97,.39,.9,.37,1.35,1.15,1.35,2.32,0,1.06-.34,1.79-1.02,2.21-.68,.41-1.56,.62-2.66,.62h-6.1v-5.54Zm0,16.39v-6.69h6.18c1.08,.01,1.91,.15,2.51,.43,1.07,.49,1.6,1.38,1.6,2.69,0,1.54-.55,2.59-1.65,3.14-.61,.3-1.45,.44-2.54,.44h-6.1Z"/><g><path class="cls-1" d="M48.87,54.82c1.89,1.52,4.07,2.29,6.54,2.29,3,0,5.32-.9,6.99-2.71,1.07-1.14,1.67-2.26,1.8-3.36h-4.96c-.29,.54-.62,.97-1,1.28-.69,.57-1.59,.85-2.7,.85-1.04,0-1.93-.23-2.68-.7-1.22-.75-1.87-2.06-1.94-3.92h13.52c.02-1.6-.03-2.83-.16-3.68-.23-1.46-.72-2.74-1.48-3.84-.84-1.25-1.91-2.17-3.21-2.75-1.29-.58-2.75-.87-4.37-.87-2.72,0-4.93,.86-6.64,2.57-1.71,1.72-2.56,4.18-2.56,7.4,0,3.43,.94,5.91,2.83,7.44Zm3.47-12.35c.69-.71,1.65-1.06,2.9-1.06,1.15,0,2.11,.33,2.88,1,.77,.67,1.21,1.65,1.29,2.93h-8.37c.18-1.21,.61-2.17,1.29-2.87Z"/><rect class="cls-1" x="49.46" y="32.81" width="10.91" height="2.53"/></g></g></g></g></svg>