<?xml version="1.0" encoding="UTF-8"?><svg id="Layer_2" xmlns="http://www.w3.org/2000/svg" viewBox="0 0 88.47 88.47"><defs><style>.cls-1{fill:#fff;}.cls-2{fill:#ff002b;}</style></defs><g id="Layer_1-2"><g><rect class="cls-2" width="88.47" height="88.47" rx="12.55" ry="12.55"/><path class="cls-1" d="M44.23,21.37c-12.63,0-22.86,10.24-22.86,22.86s10.24,22.86,22.86,22.86,22.86-10.24,22.86-22.86-10.24-22.86-22.86-22.86Zm0,3.98c4.34,0,8.32,1.48,11.51,3.95-2.29,2.96-5.46,5.3-9.5,7.01-1.94-3.55-4.15-7-6.64-10.36,1.48-.38,3.03-.6,4.63-.6Zm-8.52,2.05c2.54,3.32,4.78,6.74,6.74,10.25-4.63,1.36-10.16,2.06-16.55,2.11,1.32-5.4,4.96-9.89,9.81-12.36Zm-10.37,16.83c0-.16,.02-.32,.03-.49,7.33-.01,13.66-.85,18.95-2.52,.44,.9,.87,1.81,1.28,2.73-6.44,2.01-11.74,6.14-15.88,12.34-2.73-3.27-4.37-7.48-4.37-12.07Zm18.89,18.89c-4.37,0-8.39-1.5-11.59-4.01,3.75-5.89,8.54-9.72,14.47-11.48,1.77,4.61,3.07,9.35,3.89,14.21-2.11,.81-4.39,1.28-6.78,1.28Zm10.48-3.19c-.83-4.48-2.06-8.86-3.66-13.14,3.57-.5,7.51-.37,11.81,.37-.83,5.31-3.86,9.89-8.15,12.76Zm-5.18-16.9c-.46-1.07-.95-2.14-1.46-3.2,4.4-1.91,7.94-4.49,10.57-7.78,2.57,3.04,4.18,6.89,4.42,11.12-4.91-.8-9.42-.85-13.53-.14Z"/></g></g></svg>