<?xml version="1.0" encoding="UTF-8"?><svg id="Layer_2" xmlns="http://www.w3.org/2000/svg" viewBox="0 0 88.47 88.47"><defs><style>.cls-1{fill:#fff;}.cls-2{fill:#ff002b;}</style></defs><g id="Layer_1-2"><g><rect class="cls-2" width="88.47" height="88.47" rx="12.55" ry="12.55"/><g><path class="cls-1" d="M44.23,28.11c5.25,0,5.87,.02,7.95,.11,1.92,.09,2.96,.41,3.65,.68,.92,.36,1.57,.78,2.26,1.47,.69,.69,1.11,1.34,1.47,2.26,.27,.69,.59,1.73,.68,3.65,.09,2.07,.11,2.7,.11,7.95s-.02,5.87-.11,7.95c-.09,1.92-.41,2.96-.68,3.65-.36,.92-.78,1.57-1.47,2.26-.69,.69-1.34,1.11-2.26,1.47-.69,.27-1.73,.59-3.65,.68-2.07,.09-2.69,.11-7.95,.11s-5.87-.02-7.95-.11c-1.92-.09-2.96-.41-3.65-.68-.92-.36-1.57-.78-2.26-1.47-.69-.69-1.11-1.34-1.47-2.26-.27-.69-.59-1.73-.68-3.65-.09-2.07-.11-2.7-.11-7.95s.02-5.87,.11-7.95c.09-1.92,.41-2.96,.68-3.65,.36-.92,.78-1.57,1.47-2.26,.69-.69,1.34-1.11,2.26-1.47,.69-.27,1.73-.59,3.65-.68,2.07-.09,2.7-.11,7.95-.11m0-3.54c-5.34,0-6.01,.02-8.11,.12-2.09,.1-3.52,.43-4.77,.91-1.29,.5-2.39,1.17-3.48,2.27-1.09,1.09-1.77,2.19-2.27,3.48-.49,1.25-.82,2.68-.91,4.77-.1,2.1-.12,2.77-.12,8.11s.02,6.01,.12,8.11c.1,2.09,.43,3.52,.91,4.77,.5,1.29,1.17,2.39,2.27,3.48s2.19,1.77,3.48,2.27c1.25,.49,2.68,.82,4.77,.91,2.1,.1,2.77,.12,8.11,.12s6.01-.02,8.11-.12c2.09-.1,3.52-.43,4.77-.91,1.29-.5,2.39-1.17,3.48-2.27,1.09-1.09,1.77-2.19,2.27-3.48,.49-1.25,.82-2.68,.91-4.77,.1-2.1,.12-2.77,.12-8.11s-.02-6.01-.12-8.11c-.1-2.09-.43-3.52-.91-4.77-.5-1.29-1.17-2.39-2.27-3.48-1.09-1.09-2.19-1.77-3.48-2.27-1.25-.49-2.68-.82-4.77-.91-2.1-.1-2.77-.12-8.11-.12"/><path class="cls-1" d="M44.23,34.14c-5.58,0-10.1,4.52-10.1,10.1s4.52,10.1,10.1,10.1,10.1-4.52,10.1-10.1-4.52-10.1-10.1-10.1m0,16.65c-3.62,0-6.55-2.93-6.55-6.55s2.93-6.55,6.55-6.55,6.55,2.93,6.55,6.55-2.93,6.55-6.55,6.55"/><path class="cls-1" d="M57.09,33.74c0,1.3-1.06,2.36-2.36,2.36s-2.36-1.06-2.36-2.36,1.06-2.36,2.36-2.36,2.36,1.06,2.36,2.36"/></g></g></g></svg>