<?xml version="1.0" encoding="UTF-8"?><svg id="Layer_2" xmlns="http://www.w3.org/2000/svg" viewBox="0 0 88.47 88.47"><defs><style>.cls-1{fill:#fff;}.cls-2{fill:#02004f;}</style></defs><g id="Layer_1-2"><g><rect class="cls-2" width="88.47" height="88.47" rx="12.55" ry="12.55"/><g><g><rect class="cls-1" x="26.97" y="38.24" width="7.42" height="23.98"/><path class="cls-1" d="M30.65,35.1c2.42,0,4.39-1.98,4.39-4.43s-1.96-4.42-4.39-4.42-4.39,1.98-4.39,4.42,1.96,4.43,4.39,4.43Z"/></g><path class="cls-1" d="M46.26,49.63c0-3.37,1.55-5.38,4.52-5.38,2.73,0,4.04,1.93,4.04,5.38v12.59h7.39v-15.18c0-6.42-3.64-9.53-8.72-9.53s-7.23,3.96-7.23,3.96v-3.23h-7.12v23.98h7.12v-12.59Z"/></g></g></g></svg>