<?xml version="1.0" encoding="UTF-8"?><svg id="Layer_2" xmlns="http://www.w3.org/2000/svg" viewBox="0 0 88.47 88.47"><defs><style>.cls-1{fill:#fff;}.cls-2{fill:#ff9700;}</style></defs><g id="Layer_1-2"><g><rect class="cls-2" width="88.47" height="88.47" rx="12.55" ry="12.55"/><path class="cls-1" d="M32.76,47.57c.56,.23,1.06,0,1.23-.61,.11-.43,.38-1.51,.5-1.96,.16-.61,.1-.83-.35-1.36-.98-1.16-1.61-2.67-1.61-4.8,0-6.18,4.63-11.72,12.05-11.72,6.57,0,10.18,4.01,10.18,9.38,0,7.05-3.12,13.01-7.76,13.01-2.56,0-4.47-2.12-3.86-4.71,.74-3.1,2.16-6.44,2.16-8.68,0-2-1.07-3.67-3.3-3.67-2.62,0-4.72,2.71-4.72,6.33,0,2.31,.78,3.87,.78,3.87,0,0-2.68,11.35-3.15,13.33-.94,3.96-.14,8.81-.07,9.3,.04,.29,.41,.36,.58,.14,.24-.32,3.36-4.16,4.42-8.01,.3-1.09,1.72-6.72,1.72-6.72,.85,1.62,3.33,3.05,5.98,3.05,7.87,0,13.2-7.17,13.2-16.77,0-7.26-6.15-14.02-15.49-14.02-11.62,0-17.49,8.33-17.49,15.28,0,4.21,1.59,7.95,5.01,9.35Z"/></g></g></svg>