<?xml version="1.0" encoding="UTF-8"?><svg id="Layer_2" xmlns="http://www.w3.org/2000/svg" viewBox="0 0 88.47 88.47"><defs><style>.cls-1{fill:#fff;}.cls-2{fill:#ff9700;}</style></defs><g id="Layer_1-2"><g><rect class="cls-2" width="88.47" height="88.47" rx="12.55" ry="12.55"/><path class="cls-1" d="M25.13,56.24c3.47,2.22,7.59,3.52,12.02,3.52,14.56,0,22.78-12.3,22.29-23.32,1.53-1.1,2.86-2.49,3.91-4.06-1.41,.62-2.92,1.05-4.5,1.23,1.62-.97,2.86-2.51,3.45-4.34-1.51,.9-3.19,1.55-4.98,1.9-1.43-1.52-3.47-2.48-5.72-2.48-5.06,0-8.78,4.72-7.64,9.63-6.52-.33-12.29-3.45-16.16-8.19-2.05,3.53-1.07,8.14,2.43,10.47-1.29-.04-2.5-.39-3.55-.98-.08,3.63,2.52,7.03,6.29,7.79-1.1,.3-2.31,.37-3.54,.13,1,3.12,3.89,5.38,7.32,5.45-3.3,2.58-7.45,3.74-11.61,3.25Z"/></g></g></svg>