<?xml version="1.0" encoding="UTF-8"?><svg id="Layer_2" xmlns="http://www.w3.org/2000/svg" viewBox="0 0 88.47 88.47"><defs><style>.cls-1{fill:#fff;}.cls-2{fill:#ff002b;}</style></defs><g id="Layer_1-2"><g><rect class="cls-2" width="88.47" height="88.47" rx="12.55" ry="12.55"/><path class="cls-1" d="M65.73,33.37c-.52-1.95-2.03-3.48-3.96-3.99-3.5-.95-17.53-.95-17.53-.95,0,0-14.03,0-17.53,.95-1.93,.52-3.45,2.05-3.96,3.99-.94,3.52-.94,10.86-.94,10.86,0,0,0,7.35,.94,10.87,.52,1.95,2.03,3.48,3.96,3.99,3.5,.95,17.53,.95,17.53,.95,0,0,14.03,0,17.53-.95,1.93-.52,3.45-2.05,3.96-3.99,.94-3.52,.94-10.87,.94-10.87,0,0,0-7.35-.94-10.86Zm-26.08,17.54v-13.34l11.72,6.67-11.72,6.67Z"/></g></g></svg>