<?xml version="1.0" encoding="UTF-8"?><svg id="Layer_2" xmlns="http://www.w3.org/2000/svg" viewBox="0 0 330 324.3"><defs><style>.cls-1{fill:#02004f;}.cls-2{fill:#ff9700;}.cls-3{fill:#ff002b;}</style></defs><g id="Layer_1-2"><g><path class="cls-2" d="M49.08,21.89H235.57c9.1,0,16.49,7.39,16.49,16.49v233.85c0,9.1-7.39,16.49-16.49,16.49H49.08V21.89h0Z"/><rect class="cls-1" x="96.79" y="44.42" width="128.27" height="128.27" rx="7.06" ry="7.06"/><rect class="cls-3" x="0" y="0" width="49.08" height="306.14" rx="24.54" ry="24.54"/><path class="cls-1" d="M252.06,100.43c24.08,.02,48.16,.08,72.24,.03,2.04,0,3.72,.32,4.98,1.67,.47,.51,.72,1.2,.72,1.89v113.81c-.19,.1-.37,.24-.57,.3-10.37,3.24-16.37,10.01-16.9,21.1-.1,2.02-1.35,1.84-2.63,1.8-7.23-.24-13.32,2.41-18.54,7.27-.75,.95-.68-.11-.91-.29-6.19-4.96-13.14-7.84-21.17-7.57-1.42,.05-2.31,.16-2.31,.16,0,0-.08-2.46-.12-2.82-1.27-12.21-13.78-21.06-26.55-18.39-2.31,.48-2.89,.03-3.43-2.12-1.55-6.18-5.28-10.84-10.51-14.45-4.35-3-9.13-3.76-14.09-3.78-.89,0-2.81,.05-2.81,.05,0,0-.01-2.2-.02-2.87-.04-6.78-.07-13.55-.11-20.33,0-7.29-.01-14.58-.02-21.87,.03-.64,.08-1.29,.08-1.93,0-15.56,0-31.12,.02-46.68,0-3.65,1.21-4.84,4.77-4.89,2.36-.03,4.74-.19,7.08,.04,2.91,.29,4.75,.09,7.28,.03,7.83-.18,15.67-.11,23.51-.14Zm58.73,32.89c.03-7.78-5.6-13.54-13.26-13.56-7.71-.03-13.42,5.65-13.43,13.38-.02,7.55,5.88,13.67,13.26,13.72,7.37,.06,13.41-6.03,13.44-13.54Zm-77.09,47.79c.1-.01,.2-.02,.3-.02,.87,0,1.58,.05,2.28-.01,2.26-.21,3.34-1.83,3.95-3.72,.58-1.8-.17-3.4-1.53-4.62-1.86-1.67-7.12-1.8-9.15-.32-2.15,1.56-2.61,4.32-1.17,6.56,1.34,2.08,3.32,2.34,5.32,2.13Zm70.04-7.1c-4.51,0-7.1,2.28-6.35,5.56,.77,3.38,3.53,4.75,8.23,4.09,2.78-.39,4.61-2.59,4.41-5.31-.21-2.88-2.33-4.34-6.28-4.34Zm-42.07,23.21c4.64,0,7.38-2.75,6.21-6.23-.98-2.9-4.18-4.19-8.44-3.38-2.58,.49-4.46,2.85-4.19,5.27,.32,2.84,2.54,4.35,6.42,4.35Zm-17.39-66.46c0-.15,0-.31-.02-.46-.26-2.27-1.52-3.81-4.13-3.99-1.39-.1-2.79,0-4.19-.04-2.17-.05-3.27,1.33-4.12,3.03-.93,1.84-.18,3.38,1.08,4.66,2.34,2.35,5.21,2.08,8.07,1.31,2.21-.59,3.22-2.14,3.3-4.51Zm16.86,27.78c3.22,.19,5.73,.09,6.72-2.9,.65-1.98,.39-4-1.41-5.21-2.33-1.57-4.98-1.75-7.68-.89-1.94,.62-3.04,2.07-3.42,3.92-.41,2.03,.87,3.46,2.37,4.6,1.22,.92,2.7,.39,3.42,.48Z"/><path class="cls-1" d="M330,322.24c-1.67,1.7-3.7,2.08-6.04,2.05-10.44-.14-20.88-.13-31.32-.18-.02-15.46-.04-30.91-.06-46.37,3.41,0,28.18-.6,37.42-.62v45.12Z"/><path class="cls-3" d="M302.33,276.55c.3-8.67-1.99-16.56-7.26-23.59-1.13-1.5-3.42-2.44-4-4.37,0,0,.4-.4,.57-.56,5.16-4.69,11.16-7.25,18.26-7.01,1.28,.04,2.54,.22,2.63-1.8,.53-11.09,6.53-17.86,16.9-21.1,.2-.06,.38-.2,.57-.3v59.3c-4.62,.12-22.95,.46-27.68,.46,0,0,0-1.01,0-1.03Z"/><path class="cls-1" d="M.08,277.28c1.62-7.14,5.02-13.13,11.29-17.23,14.57-9.52,33.5-1.61,37.71,15.76,.65,3.49,.63,7.02,.5,10.54-.07,1.82,.59,2.43,2.4,2.4,6.75-.12,13.51-.11,20.26-.15,11.04,.03,22.08,.08,33.13,.08,34.63,.02,69.26,.02,103.89,.03,0,5.81,0,11.61,0,17.42-61.11,0-122.22,.02-183.33,0-15.57,0-26.4-11.31-25.9-26.93,.02-.64,.03-1.29,.05-1.93Z"/><path class="cls-3" d="M209.27,306.13c0-5.81,0-11.61,0-17.42,.06-3.69,.12-7.37,.18-11.06,2.79,0,5.59,.02,8.38,.03,24.92,.03,49.84,.05,74.76,.07,.02,15.46,.04,30.91,.06,46.37-26.26,.03-52.51,.06-78.77,.06-3.14,0-4.39-1.34-4.45-4.56-.09-4.5-.11-9-.16-13.49Zm38.67-7.73c7.41,0,14.82,.02,22.23,0,3.8-.01,5.83-1.78,5.77-4.93-.06-2.97-2.07-4.71-5.69-4.72-14.82-.03-29.65-.03-44.47,0-3.66,0-5.95,2.01-5.86,4.96,.09,2.86,2.28,4.68,5.78,4.69,7.41,.03,14.82,0,22.23,0Zm-8.51,4.39c-4.5,0-8.99-.02-13.49,0-3.77,.02-6.02,1.79-6.04,4.68-.02,2.9,2.31,4.94,5.91,4.96,9.31,.05,18.63,.05,27.94,0,3.38-.02,5.64-2.02,5.71-4.82,.07-2.84-2.11-4.77-5.58-4.81-4.82-.05-9.63-.01-14.45-.01Z"/><path class="cls-2" d="M292.58,277.75c-24.92-.02-49.84-.05-74.76-.07-2.79,0-5.59-.02-8.38-.03,.02-14.36,.03-28.71,.05-43.07,2.51-.43,5.02-1.11,7.55-1.24,11.94-.6,21.46,3.84,28,14.03,1.04,1.62,1.9,2.13,3.42,.74,4.39-4.02,9.59-6.28,15.46-7.16,1.41-.21,3.69-.46,5.37-.52,8.03-.27,14.98,2.6,21.17,7.57,.23,.19,3.42,3.37,4.61,4.97,5.41,7.21,7.69,15.69,7.25,24.62-.08,.02-6.44,.12-9.74,.17Z"/><path class="cls-3" d="M266.91,238.37c.03,.61,.15,2.21,.07,2.22-.75,.12-2.05,.21-3.06,.36-5.87,.88-11.07,3.14-15.46,7.16-1.52,1.39-2.38,.88-3.42-.74-6.54-10.18-16.07-14.62-28-14.03-2.53,.13-5.03,.81-7.55,1.24,0-11.83,0-23.67-.01-35.5,5.95-.23,11.72,.16,16.89,3.73,5.24,3.61,8.97,8.27,10.51,14.45,.54,2.14,1.11,2.6,3.43,2.12,12.98-2.71,25.69,6.47,26.6,19Z"/><path class="cls-3" d="M166.78,166.11c7.4-13,14.78-26.01,22.23-38.97,1.6-2.78,3.16-2.68,4.88,.28,4.4,7.58,8.71,15.21,13.07,22.81,.74,1.29,1.58,2.52,2.37,3.78,0,7.29,.01,14.58,.02,21.87-12.45,0-24.9-.01-37.35-.02-1.75-3.25-4.04-6.2-5.22-9.75Z"/><path class="cls-2" d="M310.79,133.31c-.03,7.51-6.07,13.59-13.44,13.54-7.37-.06-13.27-6.17-13.26-13.72,.02-7.73,5.72-13.4,13.43-13.38,7.66,.03,13.29,5.78,13.26,13.56Z"/><path class="cls-3" d="M233.85,181.08c-2.05,.24-4.09,.02-5.47-2.11-1.44-2.23-.98-5,1.17-6.56,2.04-1.48,7.29-1.35,9.15,.32,1.36,1.21,2.11,2.82,1.53,4.62-.61,1.89-1.69,3.51-3.95,3.72-.74,.07-1.5,.01-2.44,.01Z"/><path class="cls-3" d="M303.75,174c3.95,0,6.07,1.46,6.28,4.34,.2,2.72-1.63,4.92-4.41,5.31-4.7,.66-7.46-.71-8.23-4.09-.75-3.28,1.85-5.55,6.35-5.56Z"/><path class="cls-3" d="M261.68,197.2c-3.87,0-6.1-1.51-6.42-4.35-.27-2.42,1.61-4.78,4.19-5.27,4.26-.8,7.46,.48,8.44,3.38,1.17,3.48-1.57,6.24-6.21,6.23Z"/><path class="cls-3" d="M244.29,130.51c-.03,2.5-1.03,4.13-3.31,4.75-2.87,.77-5.74,1.05-8.07-1.31-1.27-1.28-2.01-2.81-1.08-4.66,.86-1.7,1.96-3.08,4.12-3.03,1.39,.03,2.8-.06,4.19,.04,2.7,.19,3.95,1.83,4.16,4.22Z"/><path class="cls-3" d="M261.15,158.52c-.72-.09-2.2,.45-3.42-.48-1.5-1.14-2.79-2.57-2.37-4.6,.38-1.85,1.48-3.3,3.42-3.92,2.7-.86,5.36-.68,7.68,.89,1.8,1.21,2.06,3.23,1.41,5.21-.99,2.99-3.5,3.09-6.72,2.9Z"/><path class="cls-3" d="M166.78,166.11c1.19,3.55,3.48,6.5,5.22,9.75-18.52,.04-37.04,.08-55.57,.12-4.82,0-9.64,.03-14.46-.01-3.53-.03-5.11-1.53-5.17-5.05-.06-3.64-.06-7.26-.02-10.9,7.41-12.81,14.93-25.64,22.34-38.45,2.74-4.74,5.42-9.51,8.19-14.23,1.98-3.38,3.48-3.34,5.44,.07,10.73,18.7,21.45,37.42,32.18,56.12,.53,.92,.85,1.99,1.84,2.58Z"/><path class="cls-1" d="M131,222.98c-11.05,0-22.1,.01-33.15,0-3.46,0-5.47-1.59-5.7-4.35-.26-3.13,1.83-5.26,5.42-5.29,7.83-.05,15.67-.02,23.5-.02,14.38,0,28.76-.02,43.13,.01,4.45,.01,6.95,3.33,5.28,6.86-1.06,2.24-2.98,2.82-5.32,2.81-11.05-.04-22.1-.02-33.15-.02Z"/><path class="cls-1" d="M130.95,193.93c10.84,0,21.67-.01,32.51,0,4.24,0,6.61,1.81,6.54,4.9-.07,3.02-2.37,4.76-6.4,4.76-21.78,0-43.56,0-65.34,0-3.78,0-5.78-1.45-6.1-4.29-.36-3.22,1.8-5.34,5.64-5.35,11.05-.04,22.1-.01,33.15-.01Z"/><path class="cls-1" d="M131.08,242.36c-10.94,0-21.88,.01-32.82,0-3.97,0-6.03-1.57-6.12-4.56-.1-3.24,2.01-5.09,5.99-5.09,21.88-.02,43.77-.02,65.65,0,3.9,0,6.3,1.96,6.22,4.96-.08,2.91-2.33,4.68-6.09,4.69-10.94,.02-21.88,0-32.82,0Z"/><path class="cls-1" d="M115.5,261.75c-5.9,0-11.81,.03-17.71,0-3.61-.02-5.65-1.76-5.66-4.69,0-2.97,2.01-4.92,5.53-4.94,12.02-.06,24.04-.06,36.06,0,3.49,.02,5.53,2,5.5,4.96-.03,2.92-2.08,4.64-5.69,4.66-6.01,.03-12.02,0-18.03,0Z"/><path class="cls-2" d="M247.93,298.4c-7.41,0-14.82,.02-22.23,0-3.5-.01-5.69-1.84-5.78-4.69-.09-2.95,2.2-4.95,5.86-4.96,14.82-.02,29.65-.03,44.47,0,3.62,0,5.63,1.75,5.69,4.72,.06,3.15-1.97,4.91-5.77,4.93-7.41,.02-14.82,0-22.23,0Z"/><path class="cls-2" d="M239.43,302.79c4.82,0,9.63-.03,14.45,.01,3.47,.03,5.66,1.97,5.58,4.81-.07,2.8-2.33,4.8-5.71,4.82-9.31,.05-18.63,.05-27.94,0-3.6-.02-5.93-2.06-5.91-4.96,.02-2.89,2.28-4.66,6.04-4.68,4.5-.03,8.99,0,13.49,0Z"/><path class="cls-2" d="M208.91,73.41c.02,7.73-5.87,13.71-13.51,13.74-7.64,.03-13.65-5.95-13.67-13.61-.02-7.69,5.92-13.72,13.54-13.74,7.67-.02,13.63,5.92,13.65,13.61Z"/></g></g></svg>