<?xml version="1.0" encoding="UTF-8"?><svg id="Layer_2" xmlns="http://www.w3.org/2000/svg" viewBox="0 0 333 327.29"><defs><style>.cls-1{fill:none;stroke:#fff;stroke-miterlimit:10;stroke-width:3px;}</style></defs><g id="Layer_1-2"><g><path class="cls-1" d="M240.21,174.23c1.36,1.22,2.11,2.82,1.53,4.62-.61,1.89-1.69,3.51-3.95,3.72-.39,.03-.78,.03-1.19,.03-.34,0-.7-.01-1.09-.01-.1,0-.2,0-.3,.01-.16,.02-.31,.03-.47,.04-.2,.01-.41,.02-.61,.02-.61,0-1.2-.07-1.76-.24-.37-.12-.74-.28-1.08-.5-.17-.11-.34-.24-.5-.38-.32-.28-.62-.63-.9-1.06-1.44-2.24-.98-5,1.17-6.56,2.04-1.48,7.29-1.35,9.15,.32Z"/><path class="cls-1" d="M242.48,136.75c-2.87,.77-5.73,1.05-8.07-1.31-1.27-1.27-2.01-2.82-1.08-4.66,.85-1.7,1.95-3.08,4.12-3.03,1.39,.03,2.79-.06,4.18,.04,.81,.06,1.5,.25,2.06,.55,.12,.06,.22,.12,.32,.19,.07,.05,.14,.09,.2,.15,.05,.03,.1,.08,.15,.12,.02,.01,.03,.03,.05,.05,.08,.07,.15,.14,.21,.21,.02,.02,.04,.05,.06,.06,.06,.06,.12,.13,.16,.2,.08,.1,.15,.19,.21,.3,.05,.07,.09,.14,.13,.22,.02,.03,.03,.05,.04,.07,.04,.07,.08,.14,.11,.22,.02,.05,.05,.1,.06,.16l.08,.21s.03,.09,.05,.14l.06,.21c.03,.08,.05,.17,.06,.27,0,.02,.01,.04,.01,.06,.02,.1,.04,.19,.05,.29,.02,.09,.03,.18,.04,.28,0,.01,0,.03,0,.05,.01,.06,.02,.14,.03,.21,0,.04,0,.08,0,.12,0,.12,0,.25-.01,.36-.01,.14-.03,.28-.04,.42-.02,.14-.04,.27-.06,.41,0,0,0,.02,0,.03-.02,.13-.05,.25-.08,.37-.03,.13-.06,.25-.11,.37-.03,.11-.08,.21-.12,.32,0,.02-.01,.04-.03,.06-.03,.08-.06,.15-.1,.22-.05,.08-.09,.17-.14,.25-.04,.07-.08,.14-.13,.21-.06,.08-.12,.16-.19,.24-.06,.08-.13,.16-.21,.23-.34,.35-.77,.64-1.27,.86-.06,.03-.13,.06-.2,.08-.06,.03-.13,.05-.19,.07-.13,.05-.27,.08-.4,.12Z"/><path class="cls-1" d="M219.27,200.93c.59,.1,1.19,.22,1.78,.36-.59-.14-1.18-.26-1.78-.36Z"/><path class="cls-1" d="M253.56,34.05V101.93c-7.84,.03-15.68-.04-23.51,.14-1.26,.03-2.35,.09-3.49,.12-1.14,.02-2.33,0-3.79-.14-2.33-.23-4.71-.07-7.08-.04-3.57,.05-4.76,1.24-4.77,4.89-.03,15.56-.01,31.11-.02,46.68,0,.65-.05,1.29-.08,1.93h0c0,6.23,.01,12.47,.02,18.7v3.17c.04,6.78,.07,13.55,.11,20.33,0,.67,.02,2.87,.02,2.87,0,11.84,0,23.67,.01,35.5-.02,14.36-.03,28.72-.05,43.07-.06,3.68-.12,7.37-.18,11.05v.02H50.58V23.39H242.9c5.89,0,10.66,4.78,10.66,10.66Z"/><path class="cls-1" d="M253.48,221.53s.06,.01,.08,.03h0s-.05-.01-.08-.03Z"/><path class="cls-1" d="M226.56,50.49v51.69c-1.14,.02-2.33,0-3.79-.14-2.33-.23-4.71-.07-7.08-.04-3.57,.05-4.76,1.24-4.77,4.89-.03,15.56-.01,31.11-.02,46.68,0,.65-.05,1.29-.08,1.93h0c0,6.23,.01,12.47,.02,18.7H102.86c-2.53,0-4.57-2.05-4.57-4.57V50.49c0-2.52,2.04-4.57,4.57-4.57h119.14c2.52,0,4.56,2.05,4.56,4.57Z"/><rect class="cls-1" x="1.5" y="1.5" width="49.08" height="306.14" rx="24.54" ry="24.54"/><path class="cls-1" d="M291.98,249.52c.17,.21,.17,.91,.59,.58-.3-.3-.52-.5-.59-.58Zm-23.57-9.65c-.01-.17-.03-.34-.05-.51,.04,.57,.11,2.73,.11,2.73,.08-.01-.03-1.61-.06-2.22Zm-14.85-18.31s-.06-.02-.08-.03c.03,.01,.06,.02,.08,.03,.26,.08,.52,.17,.78,.27-.26-.1-.52-.19-.78-.28Zm-7.8-89.76c.01,.1,.02,.22,.02,.32,0-.04,0-.08,0-.12,0-.07-.01-.14-.03-.21Zm-26.5,69.13c.6,.1,1.2,.22,1.78,.36-.59-.14-1.19-.27-1.78-.36Z"/><path class="cls-1" d="M330.78,103.63c-1.25-1.36-2.93-1.67-4.98-1.67-24.08,.06-48.16,0-72.24-.03-7.84,.03-15.68-.04-23.51,.14-1.26,.03-2.35,.09-3.49,.12-1.14,.02-2.33,0-3.79-.14-2.33-.23-4.71-.07-7.08-.04-3.57,.05-4.76,1.24-4.77,4.89-.03,15.56-.01,31.11-.02,46.68,0,.65-.05,1.29-.08,1.93h0c0,6.23,.01,12.47,.02,18.7v3.17c.04,6.78,.07,13.55,.11,20.33,0,.67,.02,2.87,.02,2.87,.14,0,.28-.01,.43-.01,.08,0,.17,0,.26,0,.21,0,.41-.01,.61-.01,.11,0,.22,0,.33,0,.15,0,.3,0,.44,0,.95-.01,1.9,0,2.83,.05,.23,.01,.45,.03,.67,.05,.3,.02,.61,.05,.91,.08,.3,.03,.6,.06,.91,.1l.29,.04c.21,.03,.41,.06,.61,.09,.59,.1,1.19,.22,1.78,.36,.15,.03,.3,.07,.44,.11,.35,.09,.69,.19,1.03,.3,.1,.03,.19,.06,.28,.09,.12,.03,.24,.08,.36,.12,.15,.05,.3,.1,.44,.16,1.46,.55,2.89,1.27,4.27,2.23,5.24,3.61,8.97,8.27,10.51,14.45,.54,2.15,1.11,2.61,3.43,2.12,1.55-.32,3.09-.48,4.61-.48,.34,0,.69,0,1.03,.03h.02c.34,.01,.67,.04,1,.07,.28,.02,.55,.05,.83,.09,.23,.03,.45,.06,.67,.1,.19,.03,.39,.06,.59,.1,.3,.06,.61,.12,.91,.19,.03,0,.06,.01,.09,.02,.25,.06,.49,.12,.74,.19,.1,.03,.21,.06,.31,.09,.27,.07,.53,.16,.8,.24,.03,0,.05,.01,.08,.03,.03,0,.06,.01,.08,.03,.26,.08,.52,.18,.78,.28,.31,.11,.62,.23,.92,.37,.3,.13,.61,.27,.91,.41,.21,.1,.41,.2,.61,.3,.39,.2,.78,.41,1.15,.63,.27,.16,.54,.33,.81,.5,.27,.17,.53,.35,.79,.54,.02,0,.03,.02,.05,.03,.26,.18,.51,.38,.76,.57,.21,.16,.41,.32,.6,.48,.06,.05,.13,.1,.19,.16,.24,.2,.47,.41,.7,.62,.2,.18,.39,.37,.58,.56l.12,.12c.23,.23,.44,.46,.66,.69,.22,.25,.43,.5,.65,.76,.21,.25,.41,.5,.59,.76,.16,.2,.3,.41,.45,.61,.06,.1,.14,.19,.2,.29,.16,.23,.3,.47,.45,.7,.17,.27,.33,.56,.48,.84,.16,.27,.3,.54,.43,.82,.01,.03,.03,.06,.04,.08,.1,.21,.21,.43,.3,.65,.03,.06,.05,.12,.08,.17,.03,.06,.06,.14,.08,.21,.23,.54,.43,1.09,.61,1.65,.11,.34,.21,.68,.3,1.03,.08,.29,.15,.59,.21,.89,.04,.18,.07,.36,.1,.54,.01,.06,.03,.13,.03,.19,.02,.1,.04,.21,.05,.31,.01,.06,.02,.12,.03,.17,.03,.19,.05,.38,.07,.56,.01,.1,.03,.19,.03,.28,.02,.17,.03,.34,.05,.51,.03,.61,.14,2.2,.06,2.22,.12,0,.24-.02,.36-.03,.05,0,.09,0,.14-.01,.28-.03,.65-.06,1.11-.08l.39-.02c.11,0,.22,0,.32-.01,8.03-.28,14.98,2.61,21.17,7.56l.03,.03c.08,.07,.29,.28,.59,.58,0,0,.07-.07,.17-.16,.03-.04,.07-.09,.12-.14,.05-.04,.08-.08,.13-.12,.03-.03,.05-.05,.08-.07,.03-.03,.06-.05,.08-.07,.16-.14,.31-.28,.47-.41,.62-.55,1.26-1.06,1.91-1.55,.16-.12,.32-.24,.48-.36,.92-.66,1.87-1.25,2.84-1.78,.17-.1,.35-.19,.53-.28,.17-.1,.36-.18,.54-.26,.18-.09,.36-.17,.54-.25,.18-.08,.36-.16,.54-.24,.19-.08,.37-.16,.56-.23,.19-.08,.37-.15,.56-.21,.19-.06,.37-.14,.56-.19,.19-.07,.37-.13,.57-.19,.19-.06,.38-.12,.58-.17,.19-.05,.39-.1,.58-.16,.39-.1,.78-.19,1.17-.27,.2-.05,.4-.08,.6-.12,.6-.11,1.21-.19,1.82-.25,.4-.04,.8-.07,1.21-.09,.72-.04,1.46-.05,2.2-.02,1.28,.04,2.53,.22,2.63-1.8,.52-11.09,6.53-17.86,16.89-21.1,.2-.06,.38-.19,.57-.3V105.51c0-.69-.25-1.38-.72-1.89Zm-89.05,75.23c-.61,1.89-1.69,3.51-3.95,3.72-.39,.03-.78,.03-1.19,.03-.1,0-.19,0-.3,0-.25,0-.52,0-.8,0-.1,0-.2,0-.3,.01-.16,.02-.31,.03-.47,.04-.2,.01-.4,.02-.59,.03-.61,0-1.21-.07-1.78-.25-.37-.12-.74-.28-1.08-.5-.17-.11-.34-.24-.5-.38-.32-.28-.62-.63-.9-1.06-1.44-2.24-.98-5,1.17-6.56,2.04-1.48,7.29-1.35,9.15,.32,1.36,1.22,2.11,2.82,1.53,4.62Zm4.05-46.73c0,.12,0,.25-.01,.36-.01,.14-.03,.28-.04,.42-.01,.14-.03,.28-.06,.41,0,0,0,.02,0,.03-.02,.13-.05,.26-.08,.37-.03,.13-.06,.26-.11,.37-.03,.11-.08,.21-.12,.32,0,.02-.01,.04-.03,.06-.03,.08-.06,.15-.1,.22-.05,.08-.09,.17-.14,.25-.04,.07-.08,.14-.13,.21-.06,.08-.12,.16-.19,.24-.06,.08-.14,.16-.21,.23-.34,.35-.77,.64-1.27,.86-.06,.03-.13,.06-.2,.08-.06,.03-.13,.05-.19,.07-.13,.05-.27,.08-.4,.12-2.87,.77-5.73,1.05-8.07-1.31-1.27-1.27-2.01-2.82-1.08-4.66,.85-1.7,1.95-3.08,4.12-3.03,1.39,.03,2.79-.06,4.18,.04,.81,.06,1.5,.25,2.06,.55,.12,.06,.22,.12,.32,.19,.07,.05,.14,.1,.2,.15,.05,.03,.1,.08,.15,.12,.02,.01,.03,.03,.05,.05,.08,.07,.15,.14,.21,.21,.02,.02,.04,.05,.06,.06,.06,.06,.12,.13,.16,.2,.08,.1,.15,.19,.21,.3,.05,.07,.09,.14,.13,.22,.02,.03,.03,.05,.04,.07,.04,.07,.08,.14,.11,.22,.02,.05,.05,.1,.06,.16l.08,.21s.03,.09,.05,.14l.06,.21c.03,.08,.05,.17,.06,.27,0,.02,.01,.04,.01,.06,.02,.1,.04,.19,.05,.29,.02,.09,.03,.18,.04,.28,0,.01,0,.03,0,.05,.01,.06,.02,.14,.03,.21,0,.04,0,.08,0,.12Zm17.4,66.58c-3.87,0-6.1-1.51-6.42-4.35-.27-2.42,1.61-4.78,4.19-5.27,4.26-.8,7.47,.48,8.44,3.38,1.17,3.48-1.58,6.24-6.21,6.24Zm6.19-41.59c-.98,2.99-3.5,3.09-6.72,2.9-.72-.09-2.2,.45-3.42-.47-1.51-1.14-2.79-2.57-2.37-4.6,.37-1.85,1.48-3.3,3.41-3.92,2.7-.86,5.36-.68,7.69,.89,1.8,1.22,2.06,3.23,1.41,5.21Zm37.75,28.02c-4.7,.66-7.46-.71-8.23-4.09-.75-3.28,1.85-5.55,6.35-5.56,3.95,0,6.07,1.46,6.28,4.34,.2,2.72-1.63,4.92-4.41,5.31Zm-8.27-36.79c-7.37-.06-13.27-6.17-13.25-13.72,.02-7.73,5.72-13.4,13.43-13.38,7.66,.03,13.29,5.79,13.26,13.56-.03,7.51-6.06,13.6-13.44,13.54Z"/><path class="cls-1" d="M331.5,278.63v45.12c-1.67,1.7-3.7,2.08-6.04,2.05-10.43-.14-20.87-.13-31.32-.17-.02-15.46-.04-30.91-.06-46.37,.46,0,1.31-.01,2.46-.03,.29,0,.59,0,.92-.01,.11,0,.22,0,.33,0,.14,0,.27,0,.41,0,.4,0,.8-.01,1.2-.02,.13,0,.26,0,.39,0s.25,0,.38,0c.19,0,.37,0,.56-.01,.47,0,.92-.01,1.32-.03,.14,0,.26,0,.38,0,.36,0,.72-.02,1.1-.02,.1,0,.19,0,.24,0h.03c.07,0,.14,0,.22,0h0c8.99-.18,21.5-.43,27.49-.45Z"/><path class="cls-1" d="M331.5,219.33v59.3c-4.55,.12-22.46,.45-27.49,.45h-.19s.01-1.01,.01-1.03c.03-.94,.03-1.87,0-2.79-.22-7.08-2.27-13.6-6.37-19.54-.29-.42-.59-.84-.9-1.25-1.13-1.51-3.43-2.44-4-4.37,0,0,.07-.07,.17-.16,.07-.08,.16-.17,.25-.26,.03-.03,.05-.05,.08-.07,.03-.03,.06-.05,.08-.07,.16-.14,.31-.28,.47-.41,.62-.55,1.26-1.06,1.91-1.55,.16-.12,.32-.24,.48-.36,.92-.66,1.87-1.25,2.84-1.78,.17-.1,.35-.19,.53-.28,.17-.09,.36-.18,.54-.26,.18-.09,.36-.17,.54-.25,.18-.08,.36-.16,.54-.24,.19-.08,.37-.16,.56-.23,.19-.08,.37-.15,.56-.21,.19-.06,.37-.14,.56-.19,.19-.07,.37-.13,.57-.19,.19-.06,.38-.12,.58-.17,.19-.05,.39-.1,.58-.16,.39-.1,.78-.19,1.17-.27,.2-.05,.4-.08,.6-.12,.6-.11,1.21-.19,1.82-.25,.4-.04,.8-.07,1.21-.09,.72-.04,1.46-.05,2.2-.02,1.28,.04,2.53,.22,2.63-1.8,.52-11.09,6.53-17.86,16.89-21.1,.2-.06,.38-.19,.57-.3Z"/><path class="cls-1" d="M210.76,290.2v17.42c-61.11,0-122.22,.02-183.33,0-.21,0-.41,0-.62,0-15.23-.3-25.77-11.51-25.28-26.92,.03-.65,.04-1.29,.05-1.93,1.62-7.14,5.02-13.13,11.29-17.23,14.57-9.52,33.5-1.6,37.71,15.76,.65,3.49,.63,7.02,.5,10.54-.06,1.6,.44,2.26,1.79,2.38,.19,.02,.39,.03,.61,.02,.5,0,1.01-.02,1.52-.02,6.24-.1,12.49-.09,18.73-.13,11.04,.03,22.08,.08,33.13,.08,34.63,.01,69.26,.02,103.89,.03Z"/><path class="cls-1" d="M294.08,279.25c-13.51-.01-27.02-.03-40.52-.04-11.41,0-22.83-.02-34.24-.03-2.79,0-5.59-.02-8.38-.03-.06,3.68-.12,7.37-.18,11.05v17.42c.05,4.5,.07,8.99,.16,13.49,.06,3.21,1.31,4.56,4.45,4.56,26.25,0,52.51-.03,78.77-.06-.02-15.46-.04-30.91-.06-46.37Zm-38.83,34.68c-9.32,.05-18.62,.05-27.94,0-3.6-.02-5.93-2.06-5.91-4.96,.02-2.89,2.28-4.67,6.04-4.69,4.5-.03,8.99,0,13.49,0,4.82,0,9.63-.03,14.45,.01,3.47,.04,5.66,1.97,5.58,4.81-.07,2.8-2.33,4.8-5.71,4.82Zm16.42-14.03c-7.42,.02-14.82,0-22.24,0s-14.82,.02-22.23-.01c-3.5-.01-5.7-1.84-5.78-4.69-.1-2.95,2.2-4.95,5.86-4.96,14.82-.03,29.65-.03,44.47,0,3.62,0,5.64,1.75,5.69,4.72,.06,3.15-1.97,4.92-5.77,4.93Z"/><path class="cls-1" d="M303.83,278.04s-.01,1.03-.01,1.03c0,0-.01,0-.03,0h-.03c-.05,0-.14,0-.24,0-.37,0-.74,.01-1.1,.02-.12,0-.25,0-.38,0-.39,.01-.85,.02-1.32,.03-.18,0-.37,.01-.56,.01-.13,0-.25,0-.38,0s-.26,0-.39,0c-.39,0-.8,.01-1.2,.02-.14,0-.27,0-.41,0-.11,0-.22,0-.33,0-.31,0-.61,0-.92,.01-.9,.01-1.75,.03-2.46,.03-13.51-.01-27.02-.03-40.52-.04-11.41,0-22.83-.02-34.24-.03-2.79,0-5.59-.02-8.38-.03,.01-14.36,.03-28.72,.05-43.07,2.51-.43,5.02-1.11,7.54-1.23,11.93-.6,21.46,3.84,28.01,14.02,1.04,1.63,1.9,2.13,3.42,.74,1.14-1.05,2.35-1.98,3.6-2.79,3.55-2.32,7.52-3.72,11.86-4.37,.18-.03,.37-.05,.57-.08,.1-.01,.21-.03,.32-.04,.75-.08,1.52-.16,2.06-.24,.04,0,.08,0,.11-.01,.12,0,.24-.02,.36-.03,.05,0,.09,0,.14-.01,.38-.03,.75-.05,1.11-.08l.39-.02c.11,0,.22,0,.32-.01,8.03-.28,14.98,2.61,21.17,7.56l.03,.03c.17,.21,.17,.91,.59,.58,.57,1.93,2.86,2.86,4,4.37,.31,.41,.61,.83,.9,1.25,4.03,5.88,6.09,12.52,6.37,19.54,.03,.92,.03,1.86,0,2.79Z"/><path class="cls-1" d="M266.3,242.33c.63-.09,1.34-.17,2.06-.24-.54,.08-1.31,.16-2.06,.24Z"/><path class="cls-1" d="M291.98,249.52c.08,.07,.29,.28,.59,.58-.42,.33-.43-.36-.59-.58Z"/><path class="cls-1" d="M292.58,250.09c1.04,1.03,3.09,3.16,4,4.37-1.13-1.51-3.43-2.44-4-4.37Z"/><path class="cls-1" d="M300.71,279.14c.43-.01,.87-.02,1.32-.03-.39,.01-.85,.02-1.32,.03Z"/><path class="cls-1" d="M302.42,279.11c.36,0,.72-.02,1.1-.02-.25,0-.63,.01-1.1,.02Z"/><path class="cls-1" d="M303.82,279.08s.01-1.01,.01-1.03c.03-.94,.03-1.87,0-2.79,.05,1.27,.05,2.54-.02,3.83Z"/><path class="cls-1" d="M268.48,242.08s-.07,.01-.11,.01c-.72,.06-1.44,.15-2.06,.24-.1,.01-.21,.03-.32,.04-.19,.03-.39,.05-.57,.08-4.34,.65-8.31,2.05-11.86,4.37-1.25,.81-2.46,1.74-3.6,2.79-1.52,1.39-2.38,.89-3.42-.74-6.54-10.18-16.07-14.62-28.01-14.02-2.53,.12-5.03,.81-7.54,1.23,0-11.84-.01-23.67-.01-35.5,.14,0,.28-.01,.43-.01,.08,0,.17,0,.26,0,.19,0,.39-.01,.61-.01,.11,0,.22,0,.33,0,.15,0,.3,0,.44,0,.95-.01,1.9,0,2.83,.05,.23,.01,.45,.03,.67,.05,.3,.02,.61,.05,.91,.08,.3,.03,.6,.06,.91,.1l.29,.04c.21,.03,.41,.06,.61,.09,.6,.1,1.2,.22,1.78,.36,.15,.03,.3,.07,.44,.11,.35,.09,.69,.19,1.03,.3,.1,.03,.19,.06,.28,.09,.12,.03,.24,.08,.36,.12,.15,.05,.3,.1,.44,.16,1.46,.55,2.89,1.27,4.27,2.23,5.24,3.61,8.97,8.27,10.51,14.45,.54,2.15,1.11,2.61,3.43,2.12,1.55-.32,3.09-.48,4.61-.48,.34,0,.69,0,1.03,.03h.02c.34,.01,.67,.04,1,.07,.28,.02,.55,.05,.83,.09,.23,.03,.45,.06,.67,.1,.19,.03,.39,.06,.59,.1,.3,.06,.61,.12,.91,.19,.03,0,.06,.01,.09,.02,.25,.06,.49,.12,.74,.19,.1,.03,.21,.06,.31,.09,.27,.07,.53,.16,.8,.24,.03,0,.05,.01,.08,.03,.03,.01,.06,.02,.08,.03,.26,.08,.52,.17,.78,.27,.31,.12,.62,.24,.92,.37,.3,.13,.61,.27,.91,.41,.21,.1,.41,.2,.61,.3,.39,.2,.78,.41,1.15,.63,.27,.16,.54,.33,.81,.5,.27,.17,.53,.35,.79,.54,.02,0,.03,.02,.05,.03,.26,.18,.51,.38,.76,.57,.21,.16,.41,.32,.6,.48,.06,.05,.13,.1,.19,.16,.24,.2,.47,.41,.7,.62,.2,.18,.39,.37,.58,.56l.12,.12c.23,.23,.44,.46,.66,.69,.22,.25,.43,.5,.65,.76,.2,.25,.4,.5,.59,.76,.16,.2,.3,.41,.45,.61,.06,.1,.14,.19,.2,.29,.16,.23,.3,.47,.45,.7,.17,.27,.33,.56,.48,.84,.16,.27,.3,.54,.43,.82,.01,.03,.03,.06,.04,.08,.1,.21,.21,.43,.3,.65,.03,.06,.05,.12,.08,.17,.03,.06,.06,.14,.08,.21,.23,.54,.43,1.09,.61,1.65,.11,.34,.21,.68,.3,1.03,.08,.29,.15,.59,.21,.89,.04,.18,.07,.36,.1,.54,.01,.06,.03,.13,.03,.19,.02,.1,.04,.21,.05,.31,.01,.06,.02,.12,.03,.17,.03,.19,.05,.38,.07,.56,.01,.1,.03,.19,.03,.28,.04,.57,.11,2.73,.11,2.73Z"/><path class="cls-1" d="M219.27,200.93c.59,.1,1.19,.22,1.78,.36-.59-.14-1.18-.26-1.78-.36Z"/><path class="cls-1" d="M253.56,221.56c.26,.08,.52,.18,.78,.28-.26-.1-.52-.19-.78-.27-.03-.01-.05-.02-.08-.03,.03,0,.06,.01,.08,.03Z"/><path class="cls-1" d="M268.37,242.09c-.54,.08-1.31,.16-2.06,.24,.63-.09,1.34-.17,2.06-.24Z"/><path class="cls-1" d="M268.48,242.08s-.07-2.16-.11-2.73c.02,.17,.03,.34,.05,.51,.03,.61,.14,2.2,.06,2.22Z"/><path class="cls-1" d="M210.85,174.2v3.17c-12.45-.01-24.9-.02-37.35-.03-.58-1.07-1.22-2.11-1.85-3.15-1.29-2.11-2.58-4.22-3.37-6.59,7.4-13,14.78-26.01,22.23-38.98,1.6-2.79,3.16-2.68,4.88,.28,4.4,7.58,8.71,15.21,13.07,22.81,.74,1.29,1.58,2.52,2.37,3.78h0c0,6.23,.01,12.47,.02,18.7Z"/><path class="cls-1" d="M312.29,134.81c-.03,7.51-6.06,13.6-13.44,13.54-7.37-.06-13.27-6.17-13.25-13.72,.02-7.73,5.72-13.4,13.43-13.38,7.66,.03,13.29,5.79,13.26,13.56Z"/><path class="cls-1" d="M241.74,178.86c-.61,1.89-1.69,3.51-3.95,3.72-.39,.03-.78,.03-1.19,.03-.39,0-.8-.02-1.25-.02-.21,.03-.41,.05-.61,.06-.82,.06-1.62,.01-2.37-.22-.37-.12-.74-.28-1.08-.5-.17-.11-.34-.24-.5-.38-.32-.28-.62-.63-.9-1.06-1.44-2.24-.98-5,1.17-6.56,2.04-1.48,7.29-1.35,9.15,.32,1.36,1.22,2.11,2.82,1.53,4.62Z"/><path class="cls-1" d="M307.12,185.14c-4.7,.66-7.46-.71-8.23-4.09-.75-3.28,1.85-5.55,6.35-5.56,3.95,0,6.07,1.46,6.28,4.34,.2,2.72-1.63,4.92-4.41,5.31Z"/><path class="cls-1" d="M263.18,198.7c-3.87,0-6.1-1.51-6.42-4.35-.27-2.42,1.61-4.78,4.19-5.27,4.26-.8,7.47,.48,8.44,3.38,1.17,3.48-1.58,6.24-6.21,6.24Z"/><path class="cls-1" d="M245.79,132.01s0,.08,0,.12c0,.12,0,.25-.01,.36-.01,.14-.03,.28-.04,.42-.02,.14-.04,.27-.06,.41,0,0,0,.02,0,.03-.02,.13-.05,.25-.08,.37-.03,.13-.06,.25-.11,.37-.03,.11-.08,.21-.12,.32,0,.02-.01,.04-.03,.06-.03,.08-.06,.15-.1,.22-.05,.08-.09,.17-.14,.25-.04,.07-.08,.14-.13,.21-.06,.08-.12,.16-.19,.24-.06,.08-.13,.16-.21,.23-.34,.35-.77,.64-1.27,.86-.06,.03-.13,.06-.2,.08-.06,.03-.13,.05-.19,.07-.13,.05-.27,.08-.4,.12-2.87,.77-5.73,1.05-8.07-1.31-1.27-1.27-2.01-2.82-1.08-4.66,.85-1.7,1.95-3.08,4.12-3.03,1.39,.03,2.79-.06,4.18,.04,.81,.06,1.5,.25,2.06,.55,.12,.06,.22,.12,.32,.19,.07,.05,.14,.09,.2,.15,.05,.03,.1,.08,.15,.12,.02,.01,.03,.03,.05,.05,.08,.07,.15,.14,.21,.21,.02,.02,.04,.05,.06,.06,.06,.06,.12,.13,.16,.2,.08,.1,.15,.19,.21,.3,.05,.07,.09,.14,.13,.22,.02,.03,.03,.05,.04,.07,.04,.07,.08,.14,.11,.22,.02,.05,.05,.1,.06,.16l.08,.21s.03,.09,.05,.14l.06,.21c.03,.08,.05,.17,.06,.27,0,.02,.01,.04,.01,.06,.02,.1,.04,.19,.05,.29,.02,.09,.03,.18,.04,.28,0,.01,0,.03,0,.05,.01,.06,.02,.14,.03,.21Z"/><path class="cls-1" d="M269.37,157.12c-.98,2.99-3.5,3.09-6.72,2.9-.72-.09-2.2,.45-3.42-.47-1.51-1.14-2.79-2.57-2.37-4.6,.37-1.85,1.48-3.3,3.41-3.92,2.7-.86,5.36-.68,7.69,.89,1.8,1.22,2.06,3.23,1.41,5.21Z"/><path class="cls-1" d="M168.28,167.61c1.19,3.55,3.48,6.5,5.22,9.75-18.52,.04-37.04,.08-55.57,.12-4.82,0-9.64,.03-14.46-.01-3.53-.03-5.11-1.53-5.17-5.05-.06-3.64-.06-7.26-.02-10.9,7.41-12.81,14.93-25.64,22.34-38.45,2.74-4.74,5.42-9.51,8.19-14.23,1.98-3.38,3.48-3.34,5.44,.07,10.73,18.7,21.45,37.42,32.18,56.12,.53,.92,.85,1.99,1.84,2.58Z"/><path class="cls-1" d="M132.5,224.48c-11.05,0-22.1,.01-33.15,0-3.46,0-5.47-1.59-5.7-4.35-.26-3.13,1.83-5.26,5.42-5.29,7.83-.05,15.67-.02,23.5-.02,14.38,0,28.76-.02,43.13,.01,4.45,.01,6.95,3.33,5.28,6.86-1.06,2.24-2.98,2.82-5.32,2.81-11.05-.04-22.1-.02-33.15-.02Z"/><path class="cls-1" d="M132.45,195.43c10.84,0,21.67-.01,32.51,0,4.24,0,6.61,1.81,6.54,4.9-.07,3.02-2.37,4.76-6.4,4.76-21.78,0-43.56,0-65.34,0-3.78,0-5.78-1.45-6.1-4.29-.36-3.22,1.8-5.34,5.64-5.35,11.05-.04,22.1-.01,33.15-.01Z"/><path class="cls-1" d="M132.58,243.86c-10.94,0-21.88,.01-32.82,0-3.97,0-6.03-1.57-6.12-4.56-.1-3.24,2.01-5.09,5.99-5.09,21.88-.02,43.77-.02,65.65,0,3.9,0,6.3,1.96,6.22,4.96-.08,2.91-2.33,4.68-6.09,4.69-10.94,.02-21.88,0-32.82,0Z"/><path class="cls-1" d="M117,263.25c-5.9,0-11.81,.03-17.71,0-3.61-.02-5.65-1.76-5.66-4.69,0-2.97,2.01-4.92,5.53-4.94,12.02-.06,24.04-.06,36.06,0,3.49,.02,5.53,2,5.5,4.96-.03,2.92-2.08,4.64-5.69,4.66-6.01,.03-12.02,0-18.03,0Z"/><path class="cls-1" d="M277.44,294.96c.06,3.15-1.97,4.92-5.77,4.93-7.42,.02-14.82,0-22.24,0s-14.82,.02-22.23-.01c-3.5-.01-5.7-1.84-5.78-4.69-.1-2.95,2.2-4.95,5.86-4.96,14.82-.03,29.65-.03,44.47,0,3.62,0,5.64,1.75,5.69,4.72Z"/><path class="cls-1" d="M260.96,309.11c-.07,2.8-2.33,4.8-5.71,4.82-9.32,.05-18.62,.05-27.94,0-3.6-.02-5.93-2.06-5.91-4.96,.02-2.89,2.28-4.67,6.04-4.69,4.5-.03,8.99,0,13.49,0,4.82,0,9.63-.03,14.45,.01,3.47,.04,5.66,1.97,5.58,4.81Z"/><path class="cls-1" d="M210.41,74.91c.02,7.73-5.87,13.71-13.51,13.74-7.64,.03-13.65-5.95-13.67-13.61-.02-7.69,5.92-13.72,13.54-13.74,7.67-.02,13.63,5.92,13.65,13.61Z"/></g></g></svg>