<?xml version="1.0" encoding="UTF-8"?><svg id="Layer_2" xmlns="http://www.w3.org/2000/svg" viewBox="0 0 333 332.14"><defs><style>.cls-1{fill:none;stroke:#fff;stroke-miterlimit:10;stroke-width:3px;}</style></defs><g id="Layer_1-2"><g><path class="cls-1" d="M115.41,1.5h5.14c13.34,.89,26.46,3.33,39.58,5.7,19.68,3.55,39.38,6.98,59.08,10.46,22.75,4.03,45.5,8.01,68.24,12.07,2.13,.38,4.59,.18,6.08,2.35,1.17,3.46-.17,6.79-.75,10.09-5.73,32.53-11.52,65.04-17.2,97.58-3.84,22.01-7.83,43.99-11.62,66.01-.46,2.67-.98,5.37-4.27,6.09-6.12-.23-12.04-1.76-18.04-2.79-31.4-5.43-62.78-11.03-94.17-16.54-18.96-3.32-37.94-6.57-56.85-10.13-4.55-.86-8.47-.35-11.91,2.85-1.73,1.61-3.03,1.29-3.79-.99,.12-6.24,1.77-12.26,2.83-18.35,4.53-26.15,9.2-52.28,13.77-78.42,1.49-8.52,2.81-17.06,4.7-25.5,1.03-8.46,2.8-16.8,4.25-25.19,1.4-8.08,2.91-16.15,4.27-24.24,1.06-6.3,3.93-10.43,10.67-11.05Z"/><path class="cls-1" d="M331.5,78.03c-1.85,6.67-2.63,13.55-3.85,20.34-3.8,21.21-7.5,42.43-11.25,63.65-3.54,20.06-7.07,40.12-10.64,60.17-1.87,10.49-3.82,20.96-5.73,31.44-2.29-1.4-1.64-3.91-1.82-5.83-1.65-16.78-14.83-31.93-33.95-34.69-1.75-.25-4.31,.23-4.9-2.56,2.18-.05,2.41-1.6,2.7-3.29,3.17-18.1,6.37-36.2,9.58-54.29,6.6-37.25,13.21-74.49,19.81-111.73,.52-2.95,.99-5.9,1.48-8.85,.95-1.41,2.3-1.26,3.73-1.04,14.49,2.21,24.8,10.27,31.91,22.8,2.02,3.56,2.14,7.55,2.61,11.46,.09,.72-.23,1.5,.32,2.16v10.29Z"/><path class="cls-1" d="M33.7,290.99c-1.7-9.24-4.54-18.48-6.18-27.73-5.93-33.49-11.81-66.99-17.71-100.48-2.64-14.96-5.52-29.88-7.85-44.88-3.28-21.05,11.47-40.93,33.33-45.01,20.29-3.79,40.64-7.22,60.96-10.82-1.57,9.38-3.09,18.77-4.73,28.14-5.47,31.29-10.98,62.57-16.48,93.85,.66,3.09-.11,6.26,.46,9.34,.58,3.18,2.19,5.75,5.24,7.18,1.39,.65,2.66,1.37,3.03,3.03,.88,3.16-.28,6.16-.82,9.17-1.37,7.58-2.31,15.24-4.25,22.71-.88,1.33-2.19,1.85-3.71,2.22-7.21,1.72-9.52,4.81-9.28,12.24,.03,.87,.09,1.7-.36,2.49-.78,1.12-1.98,1.55-3.19,1.97-15.82,5.41-24.77,16.56-27.46,32.92-.25,1.49,.7,3-.99,3.66Z"/><path class="cls-1" d="M84.13,203.34c-8.94-4.56-11.15-9.87-8.01-19.27,.26,.41-.15,2.07,1.11,.63,3.75-4.29,8.37-4.77,13.73-3.81,42,7.53,84.01,14.94,126.03,22.35,14.11,2.49,28.24,4.87,42.36,7.3,4.56,1.43,9.43,1.58,13.92,3.37,14.8,5.9,23.56,16.64,26.15,32.41,.4,2.44,.59,4.86,.6,7.31-1.45,17.93-13.33,31.43-29.08,35.95-.82,.24-1.63,.49-2.44,.74-4.39,3.46-9.45,2.26-14.18,1.6-13.76-1.91-27.36-4.88-41.12-6.8-5.08-2.19-10.62-1.93-15.92-2.89-21.44-3.88-42.87-7.76-64.36-11.36-6.1-1.02-12.09-2.72-18.3-3.14-7.4-2.56-15.28-2.62-22.86-4.26-6.04-1.31-12.21-2.04-18.26-3.35-2.69-.59-5-1.82-6.74-4.02-.89-1.13-1.6-2.3-.91-3.8-2.29-9.24,1.56-14.77,11.11-16.03,.51-.07,.99-.35,1.48-.53,5.23-.61,10.21,1.01,15.21,1.97,19.65,3.75,39.39,6.99,59.08,10.55,20,3.61,40.03,7.07,60.05,10.58,15.07,2.64,30.11,5.41,45.21,7.9,8.06,1.33,16.42-4.73,17.45-12.99,1.1-8.76-3.47-15.98-12.96-17.75-25.97-4.85-52.04-9.19-78.05-13.83-19.48-3.47-38.97-6.95-58.44-10.46-12.1-2.18-24.23-4.25-36.37-6.22-1.93-.31-4.15-.13-5.47-2.13Z"/><path class="cls-1" d="M258.72,60.77c-7.47-1.31-15.69-2.75-23.91-4.2-33.83-5.95-67.66-11.9-101.49-17.86-.95-.17-1.9-.34-2.83-.61-2.93-.87-4.6-3.52-4.09-6.41,.48-2.76,2.75-4.8,5.75-4.49,4.46,.47,8.89,1.31,13.31,2.09,37.31,6.57,74.61,13.16,111.91,19.75,1.27,.22,2.54,.42,3.78,.72,3.18,.79,5.11,3.47,4.62,6.35-.51,3.05-2.89,4.82-7.05,4.66Z"/><path class="cls-1" d="M238.45,79.18c.04,3.87-3.04,6.28-7.2,5.55-15.59-2.72-31.19-5.46-46.77-8.21-11.69-2.06-23.38-4.16-35.07-6.21-4.22-.74-6.41-3.36-5.72-6.98,.62-3.22,3.55-4.88,7.45-4.19,27.18,4.78,54.35,9.56,81.52,14.36,3.95,.7,5.75,2.51,5.79,5.68Z"/><path class="cls-1" d="M65.85,252.28c2.38,4.68,6.54,6.28,11.45,7.14,12.52,2.19,25.11,3.98,37.51,6.81-.77,1.99-2.67,1.97-4.29,2.26-13.05,2.4-26.14,4.63-39.17,7.14-12.05,2.32-17.12,15.37-9.65,25.04,3.57,4.62,8.66,6.81,14.49,5.79,36.7-6.37,73.38-12.81,110.06-19.34,7.05-1.25,14.06-2.82,21.22-3.43,1.9-.16,3.78,.02,5.66,.11,9.92,.71,19.59,3.04,29.37,4.66,8.63,1.43,17.19,3.42,26.01,1.85-1.23,4.78-4.46,7.46-9.17,8.29-31.57,5.61-63.16,11.17-94.74,16.74-27.27,4.81-54.57,9.42-81.79,14.48-23.87,4.44-44.71-10-48.49-34.1-.25-1.58-.42-3.17-.63-4.75,1.06-6.42,2.07-12.81,5.4-18.63,6.06-10.59,14.84-17.37,26.75-20.08Z"/><path class="cls-1" d="M84.13,203.34c7.88,.68,15.63,2.31,23.41,3.63,16.7,2.83,33.37,5.8,50.05,8.76,20.95,3.72,41.88,7.5,62.83,11.23,13.9,2.48,27.8,4.91,41.71,7.37,9.2,1.63,14.95,8.3,15.19,17.58,.19,7.33-6.07,14.41-14.37,16.2-4.56,.98-8.92-.55-13.3-1.3-19.12-3.26-38.21-6.67-57.31-10.06-17.62-3.13-35.24-6.32-52.86-9.44-13.85-2.45-27.72-4.82-41.57-7.25-5.89-1.04-11.77-2.16-17.67-3.21-.78-.14-1.46-.33-1.79-1.13,1.9-10.79,3.79-21.59,5.69-32.38Z"/><path class="cls-1" d="M213.13,283.81c-8.14,1.53-16.28,3.11-24.43,4.56-10.35,1.84-20.72,3.56-31.08,5.38-14.2,2.49-28.39,5.03-42.58,7.55-12.83,2.28-25.67,4.55-38.5,6.83-5.01,.89-13.36-1.36-17.49-8.26-3.24-5.4-2.92-13.49,.51-18.5,3.06-4.47,7.3-6.53,12.43-7.43,14.28-2.51,28.55-5.13,42.82-7.71,5.98,.26,11.73,1.93,17.59,2.87,13.07,2.09,26.08,4.57,39.11,6.87,13.54,2.39,27.09,4.76,40.63,7.17,.36,.06,.66,.43,.99,.66Z"/></g></g></svg>