<?xml version="1.0" encoding="UTF-8"?><svg id="Layer_2" xmlns="http://www.w3.org/2000/svg" viewBox="0 0 333 321.39"><defs><style>.cls-1{fill:none;stroke:#fff;stroke-miterlimit:10;stroke-width:3px;}</style></defs><g id="Layer_1-2"><g><path class="cls-1" d="M123.3,216.7h0c.02,28.5,.03,56.99,.03,85.47,0-28.49-.02-56.98-.03-85.47,.02-.48,.03-.96,.05-1.45-.02,.48-.04,.96-.06,1.45Z"/><path class="cls-1" d="M209.68,221.92c0-72.83-.02-145.66-.03-218.48-6.55,2.19-10.97,7.36-16.14,11.47-15.56,12.29-31.07,24.65-46.72,36.83-7.68,5.98-14.71,12.83-23.4,17.47V213.8c0,.48-.02,.96-.03,1.45-.02,.48-.03,.96-.05,1.45,0,28.49,.02,56.99,.03,85.47,0,1.4,.05,2.79,.08,4.18-.03,.22-.07,.43-.1,.65,.02,3.72,.03,7.45,.05,11.18,2.24-.54,4.1-1.8,5.87-3.2,17.55-13.89,35.01-27.9,52.66-41.66,9.17-7.16,17.67-15.23,27.81-21.09,0-10.1-.02-20.19-.03-30.29Zm-62.77-124c12.07-9.64,24.17-19.23,36.26-28.86,1.75-1.4,3.73-1.8,5.72-.84,.16,.08,.3,.16,.45,.24,.15,.09,.28,.17,.42,.27,.17,.13,.34,.27,.5,.41,.16,.15,.3,.3,.43,.47,.07,.09,.14,.16,.19,.26,.05,.07,.09,.14,.14,.21,.05,.08,.09,.15,.13,.22,.05,.1,.1,.21,.15,.32,.04,.09,.08,.18,.1,.28,.03,.04,.03,.08,.04,.12,.04,.13,.08,.27,.1,.41,.03,.16,.06,.31,.07,.47,.02,.16,.03,.33,.03,.49v.21c.05,1.9-.95,3.25-2.35,4.36-12.1,9.6-24.19,19.22-36.33,28.76-2.76,2.18-5.56,1.86-7.39-.49-1.76-2.26-1.27-5.22,1.34-7.3Zm44.73,2.33c.05,2.06-1.17,3.39-2.64,4.55-11.84,9.37-23.68,18.75-35.54,28.1-3.09,2.44-6.02,2.36-7.91-.08-1.85-2.4-1.15-5.37,1.83-7.73,11.83-9.39,23.66-18.78,35.48-28.19,1.78-1.42,3.6-2.32,5.87-1.22,1.92,.92,2.95,2.4,2.9,4.57Zm-44.78,52.75c5.29-4.2,10.59-8.39,15.88-12.59,6.05-4.8,12.09-9.6,18.14-14.4,.92-.73,1.83-1.5,2.81-2.15,2.58-1.72,5.13-1.42,6.88,.76,1.76,2.17,1.44,5.2-.94,7.11-12.15,9.72-24.33,19.37-36.5,29.05-1.04,.83-2.16,1.4-3.54,1.31-2.37,.16-3.98-1.11-4.75-3.14-.9-2.38,.06-4.4,2.02-5.95Zm.16,57.68c12.05-9.66,24.15-19.25,36.25-28.86,1.74-1.39,3.73-1.75,5.71-.71,1.71,.88,2.76,2.35,2.64,4.43,.02,1.9-1.03,3.21-2.42,4.32-12.02,9.53-24.02,19.08-36.08,28.56-2.85,2.24-5.48,2.07-7.42-.21-1.93-2.27-1.53-5.25,1.31-7.53Zm42.05,6.88c-11.91,9.45-23.86,18.86-35.77,28.31-1.13,.9-2.34,1.45-3.76,1.73-2.15-.26-3.95-1.12-4.69-3.31-.81-2.39-.09-4.39,1.91-5.97,6.31-4.98,12.58-9.98,18.87-14.98,5.71-4.52,11.41-9.04,17.14-13.54,3.1-2.43,5.99-2.33,7.91,.16,1.77,2.3,1.18,5.37-1.62,7.59Z"/><path class="cls-1" d="M322.42,2.27c-5.8-1.05-11.71-.93-17.58-.22-29.45,0-58.9-.02-88.36-.02-2.37,0-4.69,.24-6.83,1.4,0,72.83,.02,145.66,.03,218.48,0,10.1,.02,20.2,.03,30.29,3.22-.9,6.48-1.28,9.84-1.23,6,.09,12,.03,18,.03,22.93,0,45.86,0,68.79,0,4.83,.27,9.66,.36,14.47-.08,5.91-.53,10.69-5.72,10.69-11.65,0-75.18,0-150.37,0-225.55,0-5.26-3.93-10.53-9.07-11.46Zm-79.69,200.18c-2.64,.08-4.86-2.14-4.88-4.87-.03-2.65,1.89-4.68,4.52-4.8,2.74-.12,5.02,1.93,5.13,4.61,.1,2.58-2.17,4.99-4.77,5.06Zm-.25-26.83c-2.76-.07-4.75-2.22-4.62-5.02,.11-2.58,2.24-4.65,4.76-4.64,2.61,0,4.92,2.35,4.88,4.95-.03,2.67-2.29,4.78-5.02,4.71Zm54.88,26.94c-5.89,.04-11.79,0-17.68,0s-11.57,.03-17.36,0c-3.65-.02-5.93-1.86-6.08-4.8-.15-2.91,2.08-5.17,5.69-5.19,11.9-.1,23.79-.09,35.68,0,3.46,.03,5.52,2.08,5.53,4.98,0,3.05-2.14,4.99-5.78,5.02Zm-.03-26.82c-11.78,.03-23.57,.03-35.34,0-3.48,0-5.65-1.89-5.75-4.72-.09-2.95,2.22-5.13,5.72-5.15,6-.05,11.99-.02,17.99-.02s11.57-.03,17.36,.02c3.68,.03,5.82,1.89,5.84,4.94,.03,3.05-2.08,4.92-5.81,4.94Zm5.92-51.62c-.24,2.98-2.01,5.13-5.21,5.67-4.51,1.22-9.11,.48-13.67,.51-12.43,.09-24.86-.06-37.3-.1-6.9-.03-9.25-2.36-9.27-9.27,0-6-.03-12.01,0-18.01,.03-5.88,2.6-8.51,8.4-8.52,12.32-.03,24.64,0,36.97,.02,4.29-.03,8.59-.15,12.87-.08,3.96,.06,6.93,2.39,7.23,6.34,.6,7.8,.62,15.64-.03,23.45Zm-.04-59.82c-.28,3.16-2.38,5.15-5.66,5.62-4.44,1.02-8.95,.4-13.42,.42-12.22,.05-24.45-.09-36.68-.15-7.37-.03-9.64-2.27-9.65-9.56,0-6.22-.07-12.45,.03-18.67,.07-4.66,2.81-7.53,7.38-7.55,12.65-.06,25.31,.03,37.96,.05,4.39-.03,8.78-.14,13.17-.09,3.61,.05,6.51,2.28,6.85,5.9,.74,7.99,.71,16.03,0,24.02Z"/><path class="cls-1" d="M107.86,70.46c-31.33,0-62.65,.03-93.97-.05-4.72-.02-7.87,2.23-10.42,5.81-.73,1.03-.93,2.4-1.97,3.26V216.12c14.28,9.05,29.73,14.94,46.54,17.1,2.96,.38,5.95,.53,8.92,.79,8.67,.49,17.26,0,25.83-1.52,8.64-1.53,16.85-4.39,25.01-7.47,5.17-2.77,10.32-5.55,15.49-8.31h0c.02-.49,.04-.97,.06-1.46,.02-.48,.03-.96,.03-1.45V69.21c-5.13,1.15-10.31,1.45-15.53,1.25Zm-21.17,82.71c-3.45,4.3-4.81,8.73-4.57,14.2,.28,6.43-5.42,10.23-11.65,8.26-2.14-.68-4.26-1.43-6.39-2.14-2.99-.09-5.62,1.27-8.36,2.12-6.18,1.89-11.85-2-11.58-8.45,.23-5.44-1.03-9.91-4.61-14.15-4.19-4.97-1.8-12.16,4.52-13.77,3.5-.89,6.44-2.27,8.78-4.56,.42-.41,.83-.86,1.21-1.34,.15-.18,.28-.36,.42-.55,.4-.56,.79-1.16,1.15-1.81,.48-.75,1.03-1.41,1.62-1.99,3.96-3.83,9.98-3.47,13.21,1.57,2.83,4.41,6.27,7.16,11.46,8.43,6.67,1.64,9.1,8.8,4.8,14.19Z"/><path class="cls-1" d="M123.36,215.25c-.02,.48-.03,.96-.05,1.45h0c.02-.48,.04-.96,.06-1.45Z"/><path class="cls-1" d="M86.69,153.16c-3.45,4.3-4.81,8.73-4.57,14.2,.28,6.43-5.42,10.23-11.65,8.26-2.14-.68-4.26-1.43-6.39-2.14-2.99-.09-5.62,1.27-8.36,2.12-6.18,1.89-11.85-2-11.58-8.45,.23-5.44-1.03-9.91-4.61-14.15-4.19-4.97-1.8-12.16,4.52-13.77,3.5-.89,6.44-2.27,8.78-4.56,.43-.41,.84-.86,1.21-1.34,.15-.18,.28-.36,.42-.55,.41-.56,.8-1.16,1.15-1.81,.48-.75,1.03-1.41,1.61-1.99,3.96-3.83,9.98-3.47,13.21,1.57,2.83,4.41,6.27,7.16,11.46,8.43,6.67,1.64,9.1,8.8,4.8,14.19Z"/><path class="cls-1" d="M123.41,306.35c-.03-1.39-.07-2.78-.08-4.18,0-28.49-.02-56.97-.03-85.46-5.17,2.76-10.32,5.54-15.49,8.31-8.17,3.08-16.37,5.93-25.01,7.47-8.57,1.52-17.16,2.02-25.83,1.52-2.97-.26-5.96-.41-8.92-.79-16.81-2.16-32.26-8.05-46.54-17.1v93.46c2.58,7.24,7.7,9.94,15.35,9.88,28.44-.23,56.88-.06,85.32-.04,2.58,.72,5.24,.37,7.86,.42,4.51,.09,9.07,.34,13.33-1.66-.02-3.73-.03-7.46-.05-11.18,.03-.22,.07-.43,.1-.65Zm-75.42-45.08c4.81-.05,9.63,0,14.45,0s9.64-.04,14.45,0c3.57,.04,5.83,2.08,5.8,5.06-.03,2.83-2.2,4.9-5.61,4.94-9.74,.08-19.49,.08-29.23,0-3.39-.03-5.59-2.1-5.64-4.91-.06-2.95,2.24-5.04,5.78-5.08Zm48.59,30.78c-6.86,.07-13.73,.02-20.59,.02-15.67,0-31.34,0-47,.02-2.95,0-5.4-.74-6.18-3.93-.86-3.5,1.62-6.12,5.85-6.13,11.38-.04,22.75,0,34.13,0s22.1,.02,33.16-.02c2.66,0,4.98,.59,6.02,3.31,1.34,3.5-1.19,6.69-5.38,6.74Z"/><path class="cls-1" d="M123.33,302.17c0-28.49-.02-56.97-.03-85.46h0c0,28.49,.02,56.98,.03,85.46Z"/><path class="cls-1" d="M96.58,292.05c-6.86,.07-13.73,.02-20.59,.02-15.67,0-31.34,0-47,.02-2.95,0-5.4-.74-6.18-3.93-.86-3.5,1.62-6.12,5.85-6.13,11.38-.04,22.75,0,34.13,0s22.1,.02,33.16-.02c2.66,0,4.98,.59,6.02,3.31,1.34,3.5-1.19,6.69-5.38,6.74Z"/><path class="cls-1" d="M82.69,266.32c-.03,2.83-2.2,4.9-5.61,4.94-9.74,.08-19.49,.08-29.23,0-3.39-.03-5.59-2.1-5.64-4.91-.06-2.95,2.24-5.04,5.78-5.08,4.81-.05,9.63,0,14.45,0s9.64-.04,14.45,0c3.57,.04,5.83,2.08,5.8,5.06Z"/><path class="cls-1" d="M303.21,64.3c-.28,3.16-2.38,5.15-5.66,5.62-4.44,1.02-8.95,.4-13.42,.42-12.22,.05-24.45-.09-36.68-.15-7.37-.03-9.64-2.27-9.65-9.56,0-6.22-.07-12.45,.03-18.67,.07-4.66,2.81-7.53,7.38-7.55,12.65-.06,25.31,.03,37.96,.05,4.39-.03,8.78-.14,13.17-.09,3.61,.05,6.51,2.28,6.85,5.9,.74,7.99,.71,16.03,0,24.02Z"/><path class="cls-1" d="M303.25,124.12c-.24,2.98-2.01,5.13-5.21,5.67-4.51,1.22-9.11,.48-13.67,.51-12.43,.09-24.86-.06-37.3-.1-6.9-.03-9.25-2.36-9.27-9.27,0-6-.03-12.01,0-18.01,.03-5.88,2.6-8.51,8.4-8.52,12.32-.03,24.64,0,36.97,.02,4.29-.03,8.59-.15,12.87-.08,3.96,.06,6.93,2.39,7.23,6.34,.6,7.8,.62,15.64-.03,23.45Z"/><path class="cls-1" d="M303.14,197.54c0,3.05-2.14,4.99-5.78,5.02-5.89,.04-11.79,0-17.68,0s-11.57,.03-17.36,0c-3.65-.02-5.93-1.86-6.08-4.8-.15-2.91,2.08-5.17,5.69-5.19,11.9-.1,23.79-.09,35.68,0,3.46,.03,5.52,2.08,5.53,4.98Z"/><path class="cls-1" d="M303.14,170.8c.03,3.05-2.08,4.92-5.81,4.94-11.78,.03-23.57,.03-35.34,0-3.48,0-5.65-1.89-5.75-4.72-.09-2.95,2.22-5.13,5.72-5.15,6-.05,11.99-.02,17.99-.02s11.57-.03,17.36,.02c3.68,.03,5.82,1.89,5.84,4.94Z"/><path class="cls-1" d="M247.5,170.91c-.03,2.67-2.29,4.78-5.02,4.71-2.76-.07-4.75-2.22-4.62-5.02,.11-2.58,2.24-4.65,4.76-4.64,2.61,0,4.92,2.35,4.88,4.95Z"/><path class="cls-1" d="M247.5,197.39c.1,2.58-2.17,4.99-4.77,5.06-2.64,.08-4.86-2.14-4.88-4.87-.03-2.65,1.89-4.68,4.52-4.8,2.74-.12,5.02,1.93,5.13,4.61Z"/><path class="cls-1" d="M191.64,100.24c.05,2.06-1.17,3.39-2.64,4.55-11.84,9.37-23.68,18.75-35.54,28.1-3.09,2.44-6.02,2.36-7.91-.08-1.85-2.4-1.15-5.37,1.83-7.73,11.83-9.39,23.66-18.78,35.48-28.19,1.78-1.42,3.6-2.32,5.87-1.22,1.92,.92,2.95,2.4,2.9,4.57Z"/><path class="cls-1" d="M189.08,217.55c-11.91,9.45-23.86,18.86-35.77,28.31-1.13,.9-2.34,1.45-3.76,1.73-2.15-.26-3.95-1.12-4.69-3.31-.81-2.39-.09-4.39,1.91-5.97,6.31-4.98,12.58-9.98,18.87-14.98,5.71-4.52,11.41-9.04,17.14-13.54,3.1-2.43,5.99-2.33,7.91,.16,1.77,2.3,1.18,5.37-1.62,7.59Z"/><path class="cls-1" d="M191.64,72.38v.21c.05,1.9-.95,3.25-2.35,4.36-12.1,9.6-24.19,19.22-36.33,28.76-2.76,2.18-5.56,1.86-7.39-.49-1.76-2.26-1.27-5.22,1.34-7.3,12.07-9.64,24.17-19.23,36.26-28.86,1.75-1.4,3.73-1.8,5.72-.84,.16,.08,.3,.16,.45,.24,.15,.09,.28,.17,.42,.27,.17,.13,.34,.27,.5,.41,.16,.15,.3,.3,.43,.47,.07,.09,.14,.16,.19,.26,.05,.07,.09,.14,.14,.21,.05,.08,.09,.15,.13,.22,.06,.1,.1,.22,.15,.32,.04,.09,.08,.18,.1,.28,.03,.04,.03,.08,.04,.12,.04,.13,.08,.27,.1,.41,.03,.16,.06,.31,.07,.47,.02,.16,.03,.33,.03,.49Z"/><path class="cls-1" d="M189.64,131.71c-12.15,9.72-24.33,19.37-36.5,29.05-1.04,.83-2.16,1.4-3.54,1.31-2.37,.16-3.98-1.11-4.75-3.14-.9-2.38,.06-4.4,2.02-5.95,5.29-4.2,10.59-8.39,15.88-12.59,6.05-4.8,12.09-9.6,18.14-14.4,.92-.73,1.83-1.5,2.81-2.15,2.58-1.72,5.13-1.42,6.88,.76,1.76,2.17,1.44,5.2-.94,7.11Z"/><path class="cls-1" d="M191.64,185.52c.02,1.9-1.03,3.21-2.42,4.32-12.02,9.53-24.02,19.08-36.08,28.56-2.85,2.24-5.48,2.07-7.42-.21-1.93-2.27-1.53-5.25,1.31-7.53,12.05-9.66,24.15-19.25,36.25-28.86,1.74-1.39,3.73-1.75,5.71-.71,1.71,.88,2.76,2.35,2.64,4.43Z"/></g></g></svg>