<?xml version="1.0" encoding="UTF-8"?><svg id="Layer_2" xmlns="http://www.w3.org/2000/svg" viewBox="0 0 330 386.42"><defs><style>.cls-1{fill:#f7e782;}.cls-2{fill:#02004f;}.cls-3{fill:#ff9700;}.cls-4{fill:#ff002b;}.cls-5{fill:#b1e4fa;}</style></defs><g id="Layer_1-2"><g><path class="cls-2" d="M63.2,180.82c.02-3.44,2.38-5.77,6.44-5.89,4.76-.16,9.54-.04,14.31-.05,4.64,0,9.29-.04,13.94,.01,4.4,.05,6.77,2.09,6.85,5.75,.08,3.76-2.12,6.06-6.48,6.13-9.55,.14-19.09,.13-28.64,0-3.96-.06-6.44-2.59-6.43-5.95Z"/><path class="cls-2" d="M63.97,86.27c0-3.33,2.61-5.65,6.51-5.68,4.76-.04,9.52-.01,14.28-.01s9.77-.05,14.66,.02c4.04,.05,6.43,2.33,6.32,5.84-.1,3.39-2.38,5.5-6.27,5.52-9.64,.05-19.29,.05-28.94,0-3.98-.02-6.57-2.36-6.56-5.69Z"/><path class="cls-2" d="M64.26,151.16c-.83-2.42-.14-4.51,1.69-6.13,1.56-1.37,3.59-1.74,5.63-1.74,12.94-.01,25.88-.05,38.81,.01,4.74,.03,7.46,2.42,7.41,6.18-.05,3.41-2.99,5.71-7.44,5.73-6.53,.03-13.05,.01-19.58,0-6.79,0-13.57,.06-20.35-.03-2.8-.04-5.17-1.09-6.17-4.02Z"/><path class="cls-2" d="M63.97,117.95c-.04-3.55,2.68-5.74,7.19-5.75,6.64-.01,13.29,0,19.92,0s13.54-.04,20.3,.02c4.2,.03,6.49,2.12,6.44,5.66-.05,3.19-2.87,5.69-6.62,5.7-13.41,.03-26.81,.03-40.22,0-4.32-.01-6.97-2.2-7.01-5.63Z"/><path class="cls-2" d="M257.67,83.5c-.25-3.13-2.71-5.06-6.69-5.11-4.51-.05-9.02-.01-13.54,0-4.89,0-9.78-.09-14.67,.03-3.45,.09-5.6,2.06-6.21,5.42-.53,2.87,1.69,5.58,5.21,6.23,2.06,.38,4.24,.39,6.35,.26,2.51-.15,3.25,.84,3.2,3.26-.12,6.27-.05,12.53-.03,18.8,.01,4.85,2.11,7.42,5.98,7.42,3.72,.01,5.95-2.75,5.99-7.53,.05-5.39,0-10.78,.02-16.17,.03-6.44-.59-5.67,5.53-5.74,1.12-.02,2.26-.06,3.34-.28,4.17-.84,5.8-2.83,5.51-6.6Zm0,0c-.25-3.13-2.71-5.06-6.69-5.11-4.51-.05-9.02-.01-13.54,0-4.89,0-9.78-.09-14.67,.03-3.45,.09-5.6,2.06-6.21,5.42-.53,2.87,1.69,5.58,5.21,6.23,2.06,.38,4.24,.39,6.35,.26,2.51-.15,3.25,.84,3.2,3.26-.12,6.27-.05,12.53-.03,18.8,.01,4.85,2.11,7.42,5.98,7.42,3.72,.01,5.95-2.75,5.99-7.53,.05-5.39,0-10.78,.02-16.17,.03-6.44-.59-5.67,5.53-5.74,1.12-.02,2.26-.06,3.34-.28,4.17-.84,5.8-2.83,5.51-6.6ZM278,0H24.76c-3.51,.76-7.14,.84-10.37,2.86C4.36,9.11,.12,18.32,.12,29.81c-.01,17.96-.01,35.91-.01,53.86C.11,174.32,.23,264.96,0,355.6c-.04,15.11,10.05,31.49,30.3,30.8,23.58-.8,47.2-.17,70.81-.18,58.88-.03,117.77,.06,176.65-.04,.7-.1,1.37-.21,2.05-.34h.02c3.01-.52,5.93-1.3,8.62-2.96,10.08-6.23,14.14-15.62,14.14-27.04,.03-108.64,.03-217.28,0-325.92,0-16.68-8.41-26.79-24.6-29.91Zm14.2,267.92c-.03,6.4-4.52,10.91-10.89,11.01-8.64,.14-17.28-.04-25.94-.08-20.83,.01-41.66,.1-62.49,.01-5.91-.03-10.44-4.54-10.47-10.65-.14-21.84-.15-43.67-.01-65.51,.04-6.3,4.54-10.57,10.84-10.67,9.29-.14,18.57-.01,27.87-.07,18.82-.11,37.63-.27,56.45-.38,1.48-.01,3.02-.37,4.42,.46,6.06,.6,10.18,4.72,10.21,10.84,.1,21.68,.11,43.36,0,65.04ZM182.29,103.49c0-16.08,0-32.14,.01-48.22,.01-8.29,4.46-12.98,12.69-13,28.63-.09,57.25-.07,85.88-.07,1.11,0,2.29-.22,3.18,.74,5.21,1.8,8.18,5.48,8.19,10.83,.06,30.21,.08,60.42,0,90.63-.02,7.17-4.74,11.58-11.98,11.59-8.27,.02-16.54-.04-24.82-.06-20.59,.02-41.18,.08-61.77,.04-6.94-.01-11.33-4.74-11.36-12.18-.06-13.44-.02-26.87-.02-40.3ZM39.16,266.39c-.01-69.82-.01-139.64,0-209.48,0-10.62,3.98-14.63,14.5-14.64,27.51-.04,55.01-.09,82.51-.09,1.58,0,3.29-.48,4.71,.72,5.6,1.87,8.19,5.3,8.19,11.13,.01,71.84,.02,143.66-.01,215.5,0,7.05-4.51,11.52-11.55,11.54-8.41,.03-16.82-.06-25.24-.09-20.72,.03-41.44,.12-62.16,.06-6-.01-10.32-4.64-10.93-11.26-.11-1.12-.03-2.26-.03-3.39ZM221.78,90.08c2.06,.38,4.24,.39,6.35,.26,2.51-.15,3.25,.84,3.2,3.26-.12,6.27-.05,12.53-.03,18.8,.01,4.85,2.11,7.42,5.98,7.42,3.72,.01,5.95-2.75,5.99-7.53,.05-5.39,0-10.78,.02-16.17,.03-6.44-.59-5.67,5.53-5.74,1.12-.02,2.26-.06,3.34-.28,4.17-.84,5.8-2.83,5.51-6.6-.25-3.13-2.71-5.06-6.69-5.11-4.51-.05-9.02-.01-13.54,0-4.89,0-9.78-.09-14.67,.03-3.45,.09-5.6,2.06-6.21,5.42-.53,2.87,1.69,5.58,5.21,6.23Z"/><path class="cls-4" d="M306.64,0c5.8,1.65,11.32,3.77,15.57,8.38,5.05,5.49,7.79,11.85,7.79,19.35,0,110.08,0,220.17,0,330.25,0,15.7-12.18,27.85-27.87,27.88-8.03,.01-16.07,0-24.1,0,3.58-1.69,7.55-2.33,10.94-4.66,8.37-5.74,12.26-13.84,12.33-23.62,.19-29.89,.07-59.78,.07-89.67,0-79.25-.07-158.5,.07-237.74,.02-13.34-7.45-26.71-22.54-29.51-.33-.06-.6-.42-.9-.64,9.55,0,19.09,0,28.64,0Z"/><path class="cls-1" d="M104.74,180.64c.08,3.76-2.12,6.06-6.48,6.13-9.55,.14-19.09,.13-28.64,0-3.96-.06-6.44-2.59-6.43-5.95,.02-3.44,2.38-5.77,6.44-5.89,4.76-.16,9.54-.04,14.31-.05,4.64,0,9.29-.04,13.94,.01,4.4,.05,6.77,2.09,6.85,5.75Z"/><path class="cls-1" d="M63.97,86.27c0-3.33,2.61-5.65,6.51-5.68,4.76-.04,9.52-.01,14.28-.01s9.77-.05,14.66,.02c4.04,.05,6.43,2.33,6.32,5.84-.1,3.39-2.38,5.5-6.27,5.52-9.64,.05-19.29,.05-28.94,0-3.98-.02-6.57-2.36-6.56-5.69Z"/><path class="cls-1" d="M117.81,149.48c-.05,3.41-2.99,5.71-7.44,5.73-6.53,.03-13.05,.01-19.58,0-6.79,0-13.57,.06-20.35-.03-2.8-.04-5.17-1.09-6.17-4.02-.83-2.42-.14-4.51,1.69-6.13,1.56-1.37,3.59-1.74,5.63-1.74,12.94-.01,25.88-.05,38.81,.01,4.74,.03,7.46,2.42,7.41,6.18Z"/><path class="cls-1" d="M63.97,117.95c-.04-3.55,2.68-5.74,7.19-5.75,6.64-.01,13.29,0,19.92,0s13.54-.04,20.3,.02c4.2,.03,6.49,2.12,6.44,5.66-.05,3.19-2.87,5.69-6.62,5.7-13.41,.03-26.81,.03-40.22,0-4.32-.01-6.97-2.2-7.01-5.63Z"/><path class="cls-5" d="M252.16,90.1c-1.09,.22-2.23,.26-3.34,.28-6.12,.07-5.5-.7-5.53,5.74-.02,5.39,.03,10.78-.02,16.17-.04,4.78-2.28,7.54-5.99,7.53-3.88,0-5.97-2.57-5.98-7.42-.02-6.27-.09-12.53,.03-18.8,.05-2.43-.7-3.41-3.2-3.26-2.11,.13-4.28,.12-6.35-.26-3.52-.65-5.74-3.36-5.21-6.23,.61-3.35,2.76-5.33,6.21-5.42,4.89-.12,9.78-.03,14.67-.03,4.51-.01,9.02-.05,13.54,0,3.98,.05,6.44,1.97,6.69,5.11,.29,3.77-1.34,5.76-5.51,6.6Z"/><path class="cls-3" d="M149.08,54.03c0-5.83-2.59-9.26-8.19-11.13-1.42-1.2-3.13-.72-4.71-.72-27.51,0-55.01,.05-82.51,.09-10.53,.01-14.5,4.02-14.5,14.64-.01,69.83-.01,139.65,0,209.48,0,1.14-.08,2.28,.03,3.39,.6,6.62,4.93,11.25,10.93,11.26,20.72,.06,41.44-.03,62.16-.06,8.42,.03,16.83,.12,25.24,.09,7.04-.02,11.55-4.49,11.55-11.54,.03-71.84,.02-143.66,.01-215.5Zm-78.61,26.56c4.76-.04,9.52-.01,14.28-.01s9.77-.05,14.66,.02c4.04,.05,6.43,2.33,6.32,5.84-.1,3.39-2.38,5.5-6.27,5.52-9.64,.05-19.29,.05-28.94,0-3.98-.02-6.57-2.36-6.56-5.69,0-3.33,2.61-5.65,6.51-5.68Zm.68,31.61c6.64-.01,13.29,0,19.92,0s13.54-.04,20.3,.02c4.2,.03,6.49,2.12,6.44,5.66-.05,3.19-2.87,5.69-6.62,5.7-13.41,.03-26.81,.03-40.22,0-4.32-.01-6.97-2.2-7.01-5.63-.04-3.55,2.68-5.74,7.19-5.75Zm27.1,74.58c-9.55,.14-19.09,.13-28.64,0-3.96-.06-6.44-2.59-6.43-5.95,.02-3.44,2.38-5.77,6.44-5.89,4.76-.16,9.54-.04,14.31-.05,4.64,0,9.29-.04,13.94,.01,4.4,.05,6.77,2.09,6.85,5.75,.08,3.76-2.12,6.06-6.48,6.13Zm12.1-31.57c-6.53,.03-13.05,.01-19.58,0-6.79,0-13.57,.06-20.35-.03-2.8-.04-5.17-1.09-6.17-4.02-.83-2.42-.14-4.51,1.69-6.13,1.56-1.37,3.59-1.74,5.63-1.74,12.94-.01,25.88-.05,38.81,.01,4.74,.03,7.46,2.42,7.41,6.18-.05,3.41-2.99,5.71-7.44,5.73Z"/><path class="cls-4" d="M292.24,53.76c-.01-5.35-2.98-9.02-8.19-10.83-.9-.96-2.07-.74-3.18-.74-28.63,0-57.25-.02-85.88,.07-8.23,.02-12.68,4.71-12.69,13-.01,16.08-.01,32.14-.01,48.22,0,13.43-.04,26.86,.02,40.3,.03,7.43,4.42,12.17,11.36,12.18,20.6,.04,41.19-.02,61.77-.04,8.28,.02,16.55,.08,24.82,.06,7.23-.01,11.96-4.42,11.98-11.59,.08-30.21,.06-60.42,0-90.63Zm-40.08,36.34c-1.09,.22-2.23,.26-3.34,.28-6.12,.07-5.5-.7-5.53,5.74-.02,5.39,.03,10.78-.02,16.17-.04,4.78-2.28,7.54-5.99,7.53-3.88,0-5.97-2.57-5.98-7.42-.02-6.27-.09-12.53,.03-18.8,.05-2.43-.7-3.41-3.2-3.26-2.11,.13-4.28,.12-6.35-.26-3.52-.65-5.74-3.36-5.21-6.23,.61-3.35,2.76-5.33,6.21-5.42,4.89-.12,9.78-.03,14.67-.03,4.51-.01,9.02-.05,13.54,0,3.98,.05,6.44,1.97,6.69,5.11,.29,3.77-1.34,5.76-5.51,6.6Z"/><path class="cls-4" d="M166.08,306.69c41.56,0,83.12,0,124.68-.02,2.77,0,5.35,.19,6.52,3.25,1.36,3.54-.73,7.31-4.47,8.01-.97,.18-2,.09-3.01,.09-82.74,0-165.48,0-248.22,0-5.54,0-8.07-2.05-7.79-6.28,.21-3.12,1.87-4.82,4.98-5.03,1.13-.08,2.26-.03,3.39-.03,41.31,0,82.62,0,123.92,0Z"/><path class="cls-3" d="M292.2,267.92c-.03,6.4-4.52,10.91-10.89,11.01-8.64,.14-17.28-.04-25.94-.08-20.83,.01-41.66,.1-62.49,.01-5.91-.03-10.44-4.54-10.47-10.65-.14-21.84-.15-43.67-.01-65.51,.04-6.3,4.54-10.57,10.84-10.67,9.29-.14,18.57-.01,27.87-.07,18.82-.11,37.63-.27,56.45-.38,1.48-.01,3.02-.37,4.42,.46,6.06,.6,10.18,4.72,10.21,10.84,.1,21.68,.11,43.36,0,65.04Z"/><path class="cls-4" d="M93.83,348.96c-17.69,0-35.38,0-53.07,0-5.14,0-7.01-1.55-6.98-5.69,.03-3.57,2.48-5.63,6.92-5.63,35.76-.02,71.51-.02,107.27,0,4.03,0,6.63,2.17,6.75,5.49,.13,3.65-2.3,5.83-6.69,5.83-18.07,.02-36.13,0-54.2,0Z"/><path class="cls-2" d="M117.81,149.48c-.05,3.41-2.99,5.71-7.44,5.73-6.53,.03-13.05,.01-19.58,0-6.79,0-13.57,.06-20.35-.03-2.8-.04-5.17-1.09-6.17-4.02-.83-2.42-.14-4.51,1.69-6.13,1.56-1.37,3.59-1.74,5.63-1.74,12.94-.01,25.88-.05,38.81,.01,4.74,.03,7.46,2.42,7.41,6.18Z"/><path class="cls-2" d="M117.82,117.88c-.05,3.19-2.87,5.69-6.62,5.7-13.41,.03-26.81,.03-40.22,0-4.32-.01-6.97-2.2-7.01-5.63-.04-3.55,2.68-5.74,7.19-5.75,6.64-.01,13.29,0,19.92,0s13.54-.04,20.3,.02c4.2,.03,6.49,2.12,6.44,5.66Z"/><path class="cls-2" d="M104.74,180.64c.08,3.76-2.12,6.06-6.48,6.13-9.55,.14-19.09,.13-28.64,0-3.96-.06-6.44-2.59-6.43-5.95,.02-3.44,2.38-5.77,6.44-5.89,4.76-.16,9.54-.04,14.31-.05,4.64,0,9.29-.04,13.94,.01,4.4,.05,6.77,2.09,6.85,5.75Z"/><path class="cls-2" d="M105.73,86.45c-.1,3.39-2.38,5.5-6.27,5.52-9.64,.05-19.29,.05-28.94,0-3.98-.02-6.57-2.36-6.56-5.69,0-3.33,2.61-5.65,6.51-5.68,4.76-.04,9.52-.01,14.28-.01s9.77-.05,14.66,.02c4.04,.05,6.43,2.33,6.32,5.84Z"/><path class="cls-3" d="M252.16,90.1c-1.09,.22-2.23,.26-3.34,.28-6.12,.07-5.5-.7-5.53,5.74-.02,5.39,.03,10.78-.02,16.17-.04,4.78-2.28,7.54-5.99,7.53-3.88,0-5.97-2.57-5.98-7.42-.02-6.27-.09-12.53,.03-18.8,.05-2.43-.7-3.41-3.2-3.26-2.11,.13-4.28,.12-6.35-.26-3.52-.65-5.74-3.36-5.21-6.23,.61-3.35,2.76-5.33,6.21-5.42,4.89-.12,9.78-.03,14.67-.03,4.51-.01,9.02-.05,13.54,0,3.98,.05,6.44,1.97,6.69,5.11,.29,3.77-1.34,5.76-5.51,6.6Z"/></g></g></svg>