<?xml version="1.0" encoding="UTF-8"?><svg id="Layer_2" xmlns="http://www.w3.org/2000/svg" viewBox="0 0 333 389.43"><defs><style>.cls-1{fill:none;stroke:#fff;stroke-miterlimit:10;stroke-width:3px;}</style></defs><g id="Layer_1-2"><g><path class="cls-1" d="M92.13,182.15c.08,3.76-2.12,6.06-6.48,6.13-9.55,.14-19.09,.13-28.64,0-3.96-.06-6.44-2.59-6.43-5.95,.02-3.44,2.38-5.77,6.44-5.89,4.76-.16,9.54-.04,14.31-.05,4.64,0,9.29-.04,13.94,.01,4.4,.05,6.77,2.08,6.85,5.75Z"/><path class="cls-1" d="M93.12,87.95c-.1,3.39-2.38,5.5-6.27,5.52-9.64,.05-19.29,.05-28.94,0-3.98-.02-6.57-2.36-6.56-5.69,0-3.33,2.61-5.65,6.51-5.68,4.76-.04,9.52-.01,14.28-.01s9.77-.05,14.66,.02c4.04,.05,6.43,2.33,6.32,5.84Z"/><path class="cls-1" d="M105.2,150.98c-.05,3.41-2.99,5.71-7.44,5.73-6.53,.03-13.05,0-19.58,0-6.79,0-13.57,.06-20.35-.03-2.8-.04-5.17-1.09-6.17-4.02-.83-2.42-.14-4.51,1.69-6.13,1.56-1.37,3.59-1.74,5.63-1.74,12.94-.01,25.88-.05,38.81,.01,4.74,.03,7.46,2.42,7.41,6.18Z"/><path class="cls-1" d="M105.21,119.39c-.05,3.19-2.87,5.69-6.62,5.7-13.41,.03-26.81,.03-40.22,0-4.32-.01-6.97-2.2-7.01-5.63-.04-3.55,2.68-5.74,7.19-5.75,6.64-.01,13.29,0,19.92,0s13.54-.04,20.3,.02c4.2,.03,6.49,2.12,6.44,5.66Z"/><path class="cls-1" d="M227.66,79.89c-.26,0-.53,0-.8,.01,2.18-.01,4.35-.02,6.53-.02-1.9-.01-3.82-.02-5.73,.01Zm0,0c-.26,0-.53,0-.8,.01,2.18-.01,4.35-.02,6.53-.02-1.9-.01-3.82-.02-5.73,.01Zm0,0c-.26,0-.53,0-.8,.01,2.18-.01,4.35-.02,6.53-.02-1.9-.01-3.82-.02-5.73,.01Zm0,0c-.26,0-.53,0-.8,.01,2.18-.01,4.35-.02,6.53-.02-1.9-.01-3.82-.02-5.73,.01Zm57.01,231.54c-1.18-3.06-3.75-3.25-6.52-3.25-41.56,.03-83.12,.02-124.68,.02H29.54c-1.13,0-2.26-.05-3.38,.02-3.11,.22-4.77,1.91-4.99,5.04-.28,4.22,2.25,6.28,7.8,6.28h248.22c1.01,0,2.03,.09,3.01-.09,3.75-.71,5.83-4.47,4.47-8.01Zm-16.41-267.73h1.48c-.48-.04-.99,0-1.48,0Zm-11.31,113.73c-3.51,0-7.01,.01-10.52,.01,7.08,.03,14.15,.07,21.22,.05,.27,0,.54-.01,.82-.02-3.84-.01-7.68-.03-11.52-.04Zm8.01,35.66c-18.82,.11-37.63,.27-56.45,.38,4.7,.01,9.4,.03,14.11,0,15.27-.09,30.55-.21,45.82-.31-1.13-.3-2.33-.08-3.49-.07Zm-8.08,87.27c-3.69,0-7.38,0-11.08,.02,7.35,.06,14.7,.17,22.04,.07-3.66-.03-7.3-.07-10.96-.09Zm-29.22-200.46c-.26,0-.53,0-.8,.01,2.18-.01,4.35-.02,6.53-.02-1.9-.01-3.82-.02-5.73,.01Zm-92.29,259.23c-35.76-.01-71.51-.02-107.27,0-4.44,0-6.89,2.06-6.92,5.63-.03,4.14,1.83,5.69,6.98,5.69,17.69,.01,35.37,.01,53.07,.01s36.13,.01,54.2-.01c4.38-.01,6.82-2.19,6.69-5.83-.12-3.32-2.73-5.49-6.75-5.49Zm-21.59-56.64c-3.6,0-7.19,.01-10.8,.02,7.31,.03,14.63,.1,21.93,.07,.29,0,.58-.01,.88-.02-4-.02-8-.05-12.01-.07ZM227.66,79.89c-.26,0-.53,0-.8,.01,2.18-.01,4.35-.02,6.53-.02-1.9-.01-3.82-.02-5.73,.01Zm0,0c-.26,0-.53,0-.8,.01,2.18-.01,4.35-.02,6.53-.02-1.9-.01-3.82-.02-5.73,.01Z"/><path class="cls-1" d="M279.5,1.51H26.26c-3.51,.76-7.14,.84-10.37,2.86C5.86,10.61,1.62,19.82,1.62,31.31c-.01,17.96-.01,35.91-.01,53.86,0,90.65,.12,181.29-.11,271.94-.04,15.11,10.05,31.49,30.3,30.8,23.58-.8,47.2-.17,70.81-.18,58.88-.03,117.77,.06,176.65-.04,.7-.1,1.37-.21,2.05-.34h.02c3.01-.52,5.93-1.3,8.62-2.96,10.08-6.23,14.14-15.62,14.14-27.04,.03-108.64,.03-217.28,0-325.92,0-16.68-8.41-26.79-24.6-29.91Zm-109.82,103.48c0-16.08,0-32.14,.01-48.22,.01-8.29,4.46-12.98,12.69-13,14.62-.04,29.23-.06,43.85-.06,14.01-.01,28.02-.01,42.03-.01,.49,0,1-.04,1.48,0,.61,.04,1.2,.2,1.7,.74,5.21,1.8,8.18,5.48,8.19,10.83,.06,30.21,.08,60.42,0,90.63-.02,6.89-4.38,11.23-11.14,11.57h-.02c-.27,0-.54,.02-.82,.02-7.07,.02-14.14-.02-21.22-.05h-.63c-13.69,.02-27.39,.05-41.09,.03-.86,0-1.71,0-2.57,0h-2.32c-4.68,0-9.37,0-14.06,0h-4.7c-6.94-.01-11.33-4.74-11.36-12.18-.06-13.44-.02-26.87-.02-40.3Zm109.91,164.43c-.03,6.4-4.52,10.91-10.89,11.01-.28,0-.57,.01-.86,.01h-.01c-7.34,.1-14.69-.01-22.04-.07h-.44c-11.98,.01-23.93,.04-35.92,.02-.52,.01-1.04,.01-1.55,0-9.21,.01-18.4,.01-27.61-.03-5.91-.03-10.44-4.54-10.47-10.65-.14-21.84-.15-43.67-.01-65.51,.04-6.3,4.54-10.57,10.84-10.67,6.5-.1,12.99-.06,19.5-.05,2.79,0,5.58,0,8.37-.02,18.82-.11,37.63-.27,56.45-.38,1.16-.01,2.36-.23,3.49,.07,.32,.08,.63,.21,.94,.39,6.06,.6,10.18,4.72,10.21,10.84,.1,21.68,.11,43.36,0,65.04Zm-253.04-1.53c-.01-69.82-.01-139.64,0-209.48,0-10.62,3.98-14.63,14.5-14.64,27.51-.04,55.01-.09,82.51-.09,1.07,0,2.21-.22,3.26,.01,.5,.1,1,.32,1.45,.71,5.6,1.87,8.19,5.3,8.19,11.13,0,71.84,.02,143.66-.01,215.5,0,6.75-4.14,11.14-10.68,11.52-.29,.01-.58,.02-.88,.02-7.3,.03-14.62-.04-21.93-.07-13.96,.03-27.92,.07-41.88,.05-7.87,.01-15.72,.01-23.59-.01-6-.01-10.32-4.64-10.93-11.26-.11-1.12-.03-2.26-.03-3.39Zm108.87,82.55c-18.07,.02-36.14,.01-54.2,.01s-35.38,0-53.07-.01c-5.15,0-7.01-1.55-6.98-5.69,.03-3.57,2.48-5.63,6.92-5.63,35.76-.02,71.51-.01,107.27,0,4.02,0,6.63,2.17,6.75,5.49,.13,3.65-2.31,5.82-6.69,5.83Zm144.77-31.01c-.98,.18-2,.09-3.01,.09H28.97c-5.55,0-8.08-2.05-7.8-6.28,.21-3.12,1.87-4.81,4.99-5.04,1.13-.07,2.26-.02,3.38-.02h123.93c41.56,0,83.12,.01,124.68-.02,2.77,0,5.34,.19,6.52,3.25,1.36,3.54-.73,7.3-4.47,8.01Z"/><path class="cls-1" d="M308.14,1.5c5.8,1.65,11.32,3.77,15.57,8.38,5.05,5.49,7.79,11.85,7.79,19.35,0,110.08,0,220.17,0,330.25,0,15.7-12.18,27.85-27.87,27.88-8.03,.01-16.07,0-24.1,0,3.58-1.69,7.55-2.33,10.94-4.66,8.37-5.74,12.26-13.84,12.33-23.62,.19-29.89,.07-59.78,.07-89.67,0-79.25-.07-158.5,.07-237.74,.02-13.34-7.45-26.71-22.54-29.51-.33-.06-.6-.42-.9-.64,9.55,0,19.09,0,28.64,0Z"/><path class="cls-1" d="M92.13,182.15c.08,3.76-2.12,6.06-6.48,6.13-9.55,.14-19.09,.13-28.64,0-3.96-.06-6.44-2.59-6.43-5.95,.02-3.44,2.38-5.77,6.44-5.89,4.76-.16,9.54-.04,14.31-.05,4.64,0,9.29-.04,13.94,.01,4.4,.05,6.77,2.08,6.85,5.75Z"/><path class="cls-1" d="M93.12,87.95c-.1,3.39-2.38,5.5-6.27,5.52-9.64,.05-19.29,.05-28.94,0-3.98-.02-6.57-2.36-6.56-5.69,0-3.33,2.61-5.65,6.51-5.68,4.76-.04,9.52-.01,14.28-.01s9.77-.05,14.66,.02c4.04,.05,6.43,2.33,6.32,5.84Z"/><path class="cls-1" d="M105.2,150.98c-.05,3.41-2.99,5.71-7.44,5.73-6.53,.03-13.05,0-19.58,0-6.79,0-13.57,.06-20.35-.03-2.8-.04-5.17-1.09-6.17-4.02-.83-2.42-.14-4.51,1.69-6.13,1.56-1.37,3.59-1.74,5.63-1.74,12.94-.01,25.88-.05,38.81,.01,4.74,.03,7.46,2.42,7.41,6.18Z"/><path class="cls-1" d="M105.21,119.39c-.05,3.19-2.87,5.69-6.62,5.7-13.41,.03-26.81,.03-40.22,0-4.32-.01-6.97-2.2-7.01-5.63-.04-3.55,2.68-5.74,7.19-5.75,6.64-.01,13.29,0,19.92,0s13.54-.04,20.3,.02c4.2,.03,6.49,2.12,6.44,5.66Z"/><path class="cls-1" d="M233.39,79.88c-2.18,0-4.35,.01-6.53,.02,.26-.01,.53-.01,.8-.01,1.91-.01,3.82-.01,5.73-.01Z"/><path class="cls-1" d="M113.78,282.49c-3.6,0-7.19,.01-10.8,.02,7.31,.03,14.63,.1,21.93,.07,.29,0,.58-.01,.88-.02-4-.02-8-.05-12.01-.07Z"/><path class="cls-1" d="M136.47,55.54c0-5.83-2.59-9.26-8.19-11.13-.45-.38-.95-.6-1.45-.71-1.06-.23-2.2-.01-3.26-.01-27.51,0-55.01,.05-82.51,.09-10.53,.01-14.5,4.02-14.5,14.64-.01,69.83-.01,139.65,0,209.48,0,1.14-.08,2.28,.03,3.39,.6,6.62,4.93,11.25,10.93,11.26,7.87,.02,15.72,.02,23.59,.01,12.85-.01,25.72-.05,38.57-.07,1.11,0,2.21,.01,3.31,.02,3.61-.01,7.2-.02,10.8-.02,4.01,.02,8.01,.05,12.01,.07,6.54-.38,10.68-4.77,10.68-11.52,.03-71.84,.02-143.66,.01-215.5Zm-78.61,26.56c4.76-.04,9.52-.01,14.28-.01s9.77-.05,14.66,.02c4.04,.05,6.43,2.33,6.32,5.84-.1,3.39-2.38,5.5-6.27,5.52-9.64,.05-19.29,.05-28.94,0-3.98-.02-6.57-2.36-6.56-5.69,0-3.33,2.61-5.65,6.51-5.68Zm27.79,106.18c-9.55,.14-19.09,.13-28.64,0-3.96-.06-6.44-2.59-6.43-5.95,.02-3.44,2.38-5.77,6.44-5.89,4.76-.16,9.54-.04,14.31-.05,4.64,0,9.29-.04,13.94,.01,4.4,.05,6.77,2.08,6.85,5.75,.08,3.76-2.12,6.06-6.48,6.13Zm12.1-31.57c-6.53,.03-13.05,0-19.58,0-6.79,0-13.57,.06-20.35-.03-2.8-.04-5.17-1.09-6.17-4.02-.83-2.42-.14-4.51,1.69-6.13,1.56-1.37,3.59-1.74,5.63-1.74,12.94-.01,25.88-.05,38.81,.01,4.74,.03,7.46,2.42,7.41,6.18-.05,3.41-2.99,5.71-7.44,5.73Zm.84-31.63c-13.41,.03-26.81,.03-40.22,0-4.32-.01-6.97-2.2-7.01-5.63-.04-3.55,2.68-5.74,7.19-5.75,6.64-.01,13.29,0,19.92,0s13.54-.04,20.3,.02c4.2,.03,6.49,2.12,6.44,5.66-.05,3.19-2.87,5.69-6.62,5.7Z"/><path class="cls-1" d="M268.26,43.7h1.48c-.48-.04-.99,0-1.48,0Zm-11.31,113.73c-3.51,0-7.01,.01-10.52,.01,7.08,.03,14.15,.07,21.22,.05,.27,0,.54-.01,.82-.02-3.84-.01-7.68-.03-11.52-.04Zm-29.29-77.54c-.26,0-.53,0-.8,.01,2.18-.01,4.35-.02,6.53-.02-1.9-.01-3.82-.02-5.73,.01Z"/><path class="cls-1" d="M279.63,55.26c-.01-5.35-2.98-9.02-8.19-10.83-.5-.53-1.09-.7-1.7-.74h-1.48c-14.01,0-28.02,0-42.03,.01-14.62,0-29.23,.02-43.85,.06-8.23,.02-12.68,4.71-12.69,13-.01,16.08-.01,32.14-.01,48.22,0,13.43-.04,26.86,.02,40.3,.03,7.43,4.42,12.17,11.36,12.18h21.08c.86,0,1.71,0,2.57,0,12.71,0,25.42-.02,38.12-.04,.99,0,1.97,.01,2.96,.01h.63c3.51,0,7.01-.01,10.52-.01,3.85,.01,7.69,.03,11.52,.04h.02c6.76-.34,11.12-4.68,11.14-11.57,.08-30.21,.06-60.42,0-90.63Zm-48.47,37.11c-.05,.04-.08,.09-.12,.14-.1,.14-.17,.31-.22,.52-.02,.06-.03,.12-.04,.19-.02,.14-.04,.29-.06,.45-.01,.15-.02,.31-.03,.48-.01,.02-.01,.04,0,.06-.03,.71-.01,1.62-.01,2.82v.58c-.02,5.39,.03,10.78-.02,16.17-.04,4.78-2.28,7.54-5.99,7.53-3.88,0-5.97-2.57-5.98-7.42-.02-6.27-.09-12.53,.03-18.8,.05-2.43-.69-3.41-3.2-3.26-2.11,.13-4.28,.12-6.35-.26-3.52-.65-5.74-3.36-5.21-6.23,.61-3.35,2.76-5.33,6.21-5.42,4.89-.12,9.78-.03,14.67-.03h1.4s.07-.01,.11,0c.12-.01,.25-.01,.37,0,.05-.01,.09-.01,.14,0,.26-.01,.53-.01,.8-.01,1.91-.03,3.83-.02,5.73-.01,1.66,0,3.32,0,4.99,.02,3.98,.05,6.44,1.97,6.69,5.11,.29,3.77-1.34,5.76-5.51,6.6-1.09,.22-2.23,.26-3.34,.28-1.31,.02-2.32-.01-3.08,.01-.11,0-.22,0-.32,.01-.13,.01-.25,.01-.36,.02s-.22,.02-.31,.04c-.11,.01-.21,.03-.3,.06-.09,.02-.17,.04-.24,.07-.17,.07-.31,.15-.42,.27Z"/><path class="cls-1" d="M280.2,319.44c-.98,.18-2,.09-3.01,.09H28.97c-5.55,0-8.08-2.05-7.8-6.28,.21-3.12,1.87-4.81,4.99-5.04,1.13-.07,2.26-.02,3.38-.02h123.93c41.56,0,83.12,.01,124.68-.02,2.77,0,5.34,.19,6.52,3.25,1.36,3.54-.73,7.3-4.47,8.01Z"/><path class="cls-1" d="M279.59,269.43c-.03,6.4-4.52,10.91-10.89,11.01-.28,0-.57,.01-.86,.01h-.01c-3.66-.03-7.3-.07-10.96-.09-3.69,0-7.38,0-11.08,.02h-.44c-.87-.01-1.72-.02-2.59-.02-11.11,0-22.22,.03-33.33,.04-.52,.01-1.04,.01-1.55,0-9.21,.01-18.4,.01-27.61-.03-5.91-.03-10.44-4.54-10.47-10.65-.14-21.84-.15-43.67-.01-65.51,.04-6.3,4.54-10.57,10.84-10.67,6.5-.1,12.99-.06,19.5-.05,2.79,0,5.58,0,8.37-.02,4.7,.01,9.4,.03,14.11,0,15.27-.09,30.55-.21,45.82-.31,.32,.08,.63,.21,.94,.39,6.06,.6,10.18,4.72,10.21,10.84,.1,21.68,.11,43.36,0,65.04Z"/><path class="cls-1" d="M267.84,280.44c-7.34,.1-14.69-.01-22.04-.07,3.7-.01,7.39-.02,11.08-.02,3.66,.02,7.3,.06,10.96,.09Z"/><path class="cls-1" d="M268.44,193.16c-15.27,.1-30.55,.22-45.82,.31-4.71,.03-9.41,.01-14.11,0,18.82-.11,37.63-.27,56.45-.38,1.16-.01,2.36-.23,3.49,.07Z"/><path class="cls-1" d="M142.11,344.62c.13,3.65-2.31,5.82-6.69,5.83-18.07,.02-36.14,.01-54.2,.01s-35.38,0-53.07-.01c-5.15,0-7.01-1.55-6.98-5.69,.03-3.57,2.48-5.63,6.92-5.63,35.76-.02,71.51-.01,107.27,0,4.02,0,6.63,2.17,6.75,5.49Z"/><path class="cls-1" d="M105.2,150.98c-.05,3.41-2.99,5.71-7.44,5.73-6.53,.03-13.05,0-19.58,0-6.79,0-13.57,.06-20.35-.03-2.8-.04-5.17-1.09-6.17-4.02-.83-2.42-.14-4.51,1.69-6.13,1.56-1.37,3.59-1.74,5.63-1.74,12.94-.01,25.88-.05,38.81,.01,4.74,.03,7.46,2.42,7.41,6.18Z"/><path class="cls-1" d="M105.21,119.39c-.05,3.19-2.87,5.69-6.62,5.7-13.41,.03-26.81,.03-40.22,0-4.32-.01-6.97-2.2-7.01-5.63-.04-3.55,2.68-5.74,7.19-5.75,6.64-.01,13.29,0,19.92,0s13.54-.04,20.3,.02c4.2,.03,6.49,2.12,6.44,5.66Z"/><path class="cls-1" d="M92.13,182.15c.08,3.76-2.12,6.06-6.48,6.13-9.55,.14-19.09,.13-28.64,0-3.96-.06-6.44-2.59-6.43-5.95,.02-3.44,2.38-5.77,6.44-5.89,4.76-.16,9.54-.04,14.31-.05,4.64,0,9.29-.04,13.94,.01,4.4,.05,6.77,2.08,6.85,5.75Z"/><path class="cls-1" d="M93.12,87.95c-.1,3.39-2.38,5.5-6.27,5.52-9.64,.05-19.29,.05-28.94,0-3.98-.02-6.57-2.36-6.56-5.69,0-3.33,2.61-5.65,6.51-5.68,4.76-.04,9.52-.01,14.28-.01s9.77-.05,14.66,.02c4.04,.05,6.43,2.33,6.32,5.84Z"/><path class="cls-1" d="M239.55,91.61c-1.09,.22-2.23,.26-3.34,.28-1.31,.02-2.32-.01-3.08,.01-.11,0-.22,0-.32,.01-.13,.01-.25,.01-.36,.02s-.22,.02-.31,.04c-.11,.01-.21,.03-.3,.06-.09,.02-.17,.04-.24,.07-.17,.07-.31,.15-.42,.27-.05,.04-.08,.09-.12,.14-.1,.14-.17,.31-.22,.52-.02,.06-.03,.12-.04,.19-.03,.13-.05,.28-.06,.45-.02,.15-.03,.3-.03,.48-.01,.02-.01,.04,0,.06-.03,.71-.01,1.62-.01,2.82v.58c-.02,5.39,.03,10.78-.02,16.17-.04,4.78-2.28,7.54-5.99,7.53-3.88,0-5.97-2.57-5.98-7.42-.02-6.27-.09-12.53,.03-18.8,.05-2.43-.69-3.41-3.2-3.26-2.11,.13-4.28,.12-6.35-.26-3.52-.65-5.74-3.36-5.21-6.23,.61-3.35,2.76-5.33,6.21-5.42,4.89-.12,9.78-.03,14.67-.03h1.4s.07-.01,.11,0c.12-.01,.25-.01,.37,0,.05-.01,.09-.01,.14,0,2.18-.01,4.35-.02,6.53-.02,1.66,0,3.32,0,4.99,.02,3.98,.05,6.44,1.97,6.69,5.11,.29,3.77-1.34,5.76-5.51,6.6Z"/><path class="cls-1" d="M233.39,79.88c-2.18,0-4.35,.01-6.53,.02,.26-.01,.53-.01,.8-.01,1.91-.01,3.82-.01,5.73-.01Z"/></g></g></svg>