<?xml version="1.0" encoding="UTF-8"?><svg id="Layer_2" xmlns="http://www.w3.org/2000/svg" viewBox="0 0 262.6 330"><defs><style>.cls-1{fill:#02004f;}.cls-2{fill:#ff9700;}.cls-3{fill:#ff002b;}</style></defs><g id="Layer_1-2"><g><path class="cls-1" d="M262.5,117.62c-.66-15.35-2.29-30.61-5.56-45.62-3.98-18.3-9.9-35.81-21.31-51.09-21.17-28.34-66.01-30.03-83.42,8.33-5.73,12.64-8.78,25.9-10.31,39.56-3.52,31.4-1.13,62.51,5.84,93.23,4.93,21.74,8.71,43.46,6.51,65.89-1.43,14.53-2.44,29.1-2.75,41.34-.14,9.53-.1,16.69,1.09,23.77,2.85,16.88,11.43,29.54,28.27,34.68,16.32,4.97,31.37,1.9,43.57-10.62,8.1-8.31,11.29-18.83,11.18-30.24-.12-12.7,.44-25.3,2.36-37.86,3.8-24.76,10.39-48.89,16.1-73.22,4.5-19.14,9.26-38.24,8.4-58.16Zm-85.59,157.54c.15-9.39,8.39-17.35,17.69-17.05,9.23,.29,17,8.33,16.85,17.45-.14,9.18-8.1,17.06-17.24,17.09-9.31,.02-17.45-8.2-17.29-17.48Zm10.4-104.31c-12.84-12.25-12.34-37.24,.99-49.04,9.22-8.15,22.12-6.84,29.82,3.06,4.49,5.77,6.89,13.13,6.9,23.94-.23,6.8-2.92,15.37-10.05,22.13-8.14,7.7-19.54,7.65-27.66-.09Z"/><path class="cls-1" d="M121.92,96.64c-.09-11.62-.61-23.24-2.47-34.73-2.49-15.38-6.32-30.36-15.73-43.21C92.32,3.13,76.72-2.25,58.13,.97c-17.88,3.1-29.77,14.58-37.94,29.88C3.18,62.65-1.24,97.2,.28,132.58c.84,19.84,6.9,38.93,11.53,58.16,7.8,32.42,15.98,64.74,14.95,98.58-.32,10.52,3.59,20.29,11.18,27.94,12.32,12.4,27.36,15.5,43.63,10.39,16.77-5.26,25.52-18.04,28.03-34.9,3.09-20.68-.02-41.34-1.3-61.98-1.08-17.43-1.49-34.72,2.69-51.95,6.56-26.97,11.05-54.28,10.92-82.17Zm-53.94,195.99c-9.36-.07-17.4-8.32-17.17-17.6,.23-9.23,8.2-17.01,17.36-16.94,9.2,.07,17.11,7.96,17.19,17.13,.07,9.31-8.08,17.48-17.37,17.4ZM44.12,124.92c4.14-5.28,9.45-8.53,16.03-8.4,7.16-.04,12.37,3.14,16.52,8.16,9.48,11.43,10.21,29.84,1.8,42.07-8.8,12.8-24.6,13.26-34.21,.99-9.33-11.9-9.44-30.96-.14-42.82Z"/><path class="cls-2" d="M225.02,148.81c-.23,6.8-2.92,15.37-10.05,22.13-8.14,7.7-19.54,7.65-27.66-.09-12.84-12.25-12.34-37.24,.99-49.04,9.22-8.15,22.12-6.84,29.82,3.06,4.49,5.77,6.89,13.13,6.9,23.94Z"/><path class="cls-3" d="M211.45,275.55c-.14,9.18-8.1,17.06-17.24,17.09-9.31,.02-17.45-8.2-17.29-17.48,.15-9.39,8.39-17.35,17.69-17.05,9.23,.29,17,8.33,16.85,17.45Z"/><path class="cls-2" d="M78.47,166.74c-8.8,12.8-24.6,13.26-34.21,.99-9.33-11.9-9.44-30.96-.14-42.82,4.14-5.28,9.45-8.53,16.03-8.4,7.16-.04,12.37,3.14,16.52,8.16,9.48,11.43,10.21,29.84,1.8,42.07Z"/><path class="cls-3" d="M85.35,275.23c.07,9.31-8.08,17.48-17.37,17.4-9.36-.07-17.4-8.32-17.17-17.6,.23-9.23,8.2-17.01,17.36-16.94,9.2,.07,17.11,7.96,17.19,17.13Z"/></g></g></svg>