<?xml version="1.0" encoding="UTF-8"?><svg id="Layer_2" xmlns="http://www.w3.org/2000/svg" viewBox="0 0 330 244.15"><defs><style>.cls-1{fill:#02004f;}.cls-2{fill:#ff9700;}.cls-3{fill:#525cdc;}.cls-4{fill:#ff002b;}</style></defs><g id="Layer_1-2"><g><circle class="cls-1" cx="216.9" cy="122.07" r="113.1"/><circle class="cls-4" cx="215.45" cy="122.45" r="59.43"/><path class="cls-2" d="M226.23,233.99c-.42,6.66-4.04,10.16-10.6,10.16-33.22,0-66.45,0-99.67,0-.96,0-1.92-.06-2.88-.09-15.31,.03-30.61,.09-45.91,.09-18.62,.03-37.25,0-55.87,0-7.5,0-11.31-3.75-11.31-11.14V11.14C0,3.84,3.79,0,10.99,0,44.07,0,77.13,0,110.21,.01c.96,0,1.92,.06,2.89,.09,12.18-.03,24.35-.09,36.53-.09C171.52,0,193.42,0,215.32,0c6.86,0,10.49,3.38,10.91,10.15,0,19.32,0,204.52,0,223.84Z"/><rect class="cls-1" x="46.1" y="191.09" width="145.42" height="19.53" rx="9.76" ry="9.76"/><path class="cls-1" d="M169.2,61.72c-1.04,4.6-5.12,7.72-9.64,7.72-.72,0-1.45-.08-2.18-.24l-14.66-3.3v63.94c0,1.06-.04,2.11-.14,3.15-1.6,19.11-17.61,34.12-37.13,34.12-20.59,0-37.27-16.68-37.27-37.27s16.68-37.27,37.27-37.27c6.15,0,11.95,1.49,17.06,4.13V53.56c.04-5.38,4.28-9.75,9.58-10.01h.3c.72,0,1.46,.07,2.19,.23l1.26,.28,25.87,5.83c5.33,1.2,8.68,6.5,7.48,11.82Z"/><path class="cls-3" d="M151.13,128.61v1.53c0,.55-.04,1.09-.14,1.62,.09-1.04,.14-2.09,.14-3.15Z"/></g></g></svg>