<?xml version="1.0" encoding="UTF-8"?><svg id="Layer_2" xmlns="http://www.w3.org/2000/svg" viewBox="0 0 333 247.15"><defs><style>.cls-1{fill:none;stroke:#fff;stroke-miterlimit:10;stroke-width:3px;}</style></defs><g id="Layer_1-2"><g><path class="cls-1" d="M152.63,130.11v1.53c0,.55-.04,1.09-.14,1.62,.09-1.04,.14-2.09,.14-3.15Z"/><path class="cls-1" d="M331.5,123.57c0,59.35-45.71,108.02-103.84,112.73,.03-.27,.06-.54,.08-.82,0-5.79,0-26.46,0-53.1,0-35.4,0-81.35,0-116.89,0-27,0-48.01,0-53.85-.02-.27-.04-.54-.07-.81,58.13,4.71,103.83,53.38,103.83,112.73Z"/><path class="cls-1" d="M276.38,123.94c0,29.14-20.97,53.38-48.64,58.45,0-35.4,0-81.35,0-116.89,27.67,5.07,48.64,29.31,48.64,58.45Z"/><path class="cls-1" d="M227.73,65.5c0-27,0-48.01,0-53.85-.02-.27-.04-.54-.07-.81-.65-6.23-4.26-9.34-10.84-9.34-21.9,0-43.8,0-65.7,0-12.18,0-24.35,.06-36.53,.09-.96-.03-1.92-.09-2.89-.09-33.07,0-66.14,0-99.22,0C5.29,1.5,1.5,5.34,1.5,12.64V234.51c0,7.38,3.81,11.14,11.31,11.14,18.62,0,37.25,.02,55.87,0,15.3,0,30.6-.06,45.91-.09,.95,.03,1.91,.09,2.88,.09,33.22,0,66.45,0,99.67,0,6.28,0,9.87-3.21,10.52-9.34,.03-.27,.06-.54,.08-.82,0-5.79,0-26.46,0-53.1,0-35.4,0-81.35,0-116.89Zm-120.78,28.58c.74,0,1.47,.02,2.2,.07,5.33,.3,10.36,1.73,14.86,4.06V55.06c.04-5.38,4.28-9.75,9.58-10.01h.3c.72,0,1.46,.07,2.19,.23l.56,.13,.7,.15,25.87,5.83c5.33,1.2,8.68,6.5,7.48,11.82-1.04,4.6-5.12,7.72-9.64,7.72-.72,0-1.45-.08-2.18-.24l-14.66-3.3v63.94c0,1.06-.04,2.11-.14,3.15-1.39,16.65-13.72,30.18-29.78,33.4-2.38,.47-4.83,.72-7.35,.72-20.59,0-37.27-16.68-37.27-37.27s16.68-37.26,37.27-37.26Zm45.67,36.03v1.53c0,.55-.04,1.09-.14,1.62,.09-1.04,.14-2.09,.14-3.15Zm37.53,79.15c-1.77,1.77-4.21,2.86-6.9,2.86H57.36c-5.39,0-9.76-4.37-9.76-9.76,0-2.7,1.09-5.13,2.86-6.9s4.21-2.86,6.9-2.86h125.89c5.39,0,9.76,4.37,9.76,9.76,0,2.7-1.09,5.13-2.86,6.9Z"/><path class="cls-1" d="M152.63,130.11v1.53c0,.55-.04,1.09-.14,1.62,.09-1.04,.14-2.09,.14-3.15Z"/><path class="cls-1" d="M193.02,202.35c0,2.7-1.09,5.13-2.86,6.9-1.77,1.77-4.21,2.86-6.9,2.86H57.36c-5.39,0-9.76-4.37-9.76-9.76,0-2.7,1.09-5.13,2.86-6.9s4.21-2.86,6.9-2.86h125.89c5.39,0,9.76,4.37,9.76,9.76Z"/><path class="cls-1" d="M170.7,63.22c-1.04,4.6-5.12,7.72-9.64,7.72-.72,0-1.45-.08-2.18-.24l-14.66-3.3v63.94c0,1.06-.04,2.11-.14,3.15-1.39,16.65-13.72,30.18-29.78,33.4-2.38,.47-4.83,.72-7.35,.72-20.59,0-37.27-16.68-37.27-37.27s16.68-37.26,37.27-37.26c.74,0,1.47,.02,2.2,.07,5.33,.3,10.36,1.73,14.86,4.06V55.06c.04-5.38,4.28-9.75,9.58-10.01h.3c.72,0,1.46,.07,2.19,.23l.56,.13,.7,.15,25.87,5.83c5.33,1.2,8.68,6.5,7.48,11.82Z"/><path class="cls-1" d="M152.63,130.11v1.53c0,.55-.04,1.09-.14,1.62,.09-1.04,.14-2.09,.14-3.15Z"/></g></g></svg>