<?xml version="1.0" encoding="UTF-8"?><svg id="Layer_2" xmlns="http://www.w3.org/2000/svg" viewBox="0 0 177.07 333"><defs><style>.cls-1{fill:none;stroke:#fff;stroke-miterlimit:10;stroke-width:3px;}</style></defs><g id="Layer_1-2"><g><path class="cls-1" d="M26.64,331.5c-2.67-1.63-4.15-4.06-4.99-7.04-1.04-3.69-2.27-7.32-3.43-10.98-.32-2.64,1.8-2.22,3.16-2.27,5.22-.17,10.44-.15,15.66-.02,1.7,.04,3.41,.11,5.11-.03,37.48-.11,74.96-.06,112.44,.02,1.59,0,4.17-.91,4.25,2.29-1.41,4.36-2.86,8.71-4.21,13.09-.71,2.3-2.55,3.53-4.25,4.93H26.64Z"/><path class="cls-1" d="M158.83,313.47c-.5-2.13-2.23-1.27-3.44-1.27-35.72-.04-71.44-.03-107.16-.04-2.04,0-4.08-.02-6.11-.03-10.15-1.78-16.42-9.03-16.42-19.42-.05-60.74-.05-121.49,0-182.23,0-9.94,3.57-18.89,8.44-27.38,6.14-10.71,12.25-21.43,18.38-32.14,.74-1.29,1.4-2.68,2.73-3.53,1.53-.68,3.15-.56,4.75-.56,29.05-.06,58.1,.1,87.16-.09,.85,0,1.73-.11,2.45,.52,5.69,10.08,11.19,20.27,17.11,30.21,6.1,10.24,8.89,21.13,8.86,33.05-.14,59.67-.06,119.34-.06,179.01,0,12.25-3.41,17.39-14.82,21.9-1.14,.45-1.13,1.44-1.85,1.99Z"/><path class="cls-1" d="M54.97,48.01c-2.48,5.7-6.03,10.8-8.95,16.26-5.79,10.83-13.07,20.9-17.11,32.64-1.54,4.47-2.24,9.13-2.24,13.84-.04,60.52-.03,121.04-.03,181.56,0,9.69,5.32,16.66,14.7,19.3,.29,.08,.52,.35,.78,.53-6.93,.01-13.86,0-20.79,.06-1.14,.01-2.7-.64-3.11,1.29-.61-1.23-1.62-1.72-2.95-2.13-8.51-2.65-13.76-9.86-13.77-18.81-.01-62.08,0-124.16,0-186.24,0-9.69,2.89-18.52,7.65-26.86,6.11-10.7,12.16-21.43,18.24-32.14,.62-.54,1.38-.52,2.14-.49,7.08,.2,14.16,.02,21.24,.11,1.47,.02,3.05-.21,4.2,1.1Z"/><path class="cls-1" d="M54.97,48.01c-7.4-.03-14.79-.09-22.19-.08-1.83,0-3.63-.1-5.39-.63-5.88-3.83-7.64-8.98-4.65-14,2.14-3.59,5.67-4.7,9.6-4.71,24.96-.02,49.92-.01,74.89-.01,4.06-1.47,8.11-1.69,12.17,0,8.66,0,17.32-.09,25.98,.03,8.02,.1,12.45,7.19,9.1,14.25-1.04,2.19-3,3.25-4.88,4.46-1.76,.56-3.57,.62-5.4,.62-28.46-.02-56.91-.01-85.37,0-1.29,0-2.57,.06-3.86,.09Z"/><path class="cls-1" d="M119.4,28.58c-4.06,0-8.11,0-12.17,0,6.01-8.09,11.96-16.22,18.07-24.24,2.45-3.22,5-3.61,7.4-1.62,2.28,1.89,2.28,4.67,.03,7.73-4.44,6.04-8.88,12.09-13.33,18.13Z"/><path class="cls-1" d="M127.78,178.77c-1.87,9.12-6.89,16.45-13.53,22.64-5.66,5.27-12.14,9.33-19.93,10.82-12.44,3.88-24.27,2.03-35.67-3.78-3.34-1.7-6.39-3.87-9.2-6.4-1.68-1.53-1.66-2.48-.04-4.07,9.4-9.25,18.69-18.62,28.02-27.95,1.13-1.13,2.24-2.29,3.35-3.44,.35-.77,.9-1.29,1.74-1.46,10.51-10.57,21.03-21.11,31.48-31.72,1.44-1.46,2.25-.92,3.35,.28,6.34,6.9,10.14,15.04,11.72,24.2,1.2,7.03,1.13,14.03-1.28,20.87Z"/><path class="cls-1" d="M110.26,105.92c-10.58-.06-19.29-8.98-19.17-19.65,.12-10.41,8.99-19.07,19.48-19.02,10.58,.06,19.29,8.98,19.17,19.65-.12,10.41-8.99,19.07-19.48,19.02Z"/><path class="cls-1" d="M78.19,267.08c-.01,10.61-8.88,19.37-19.52,19.3-10.44-.07-19.15-8.88-19.13-19.37,.01-10.61,8.88-19.37,19.52-19.3,10.44,.07,19.15,8.88,19.13,19.37Z"/><path class="cls-1" d="M58.85,125.44c-.1,7.17-5.81,12.76-12.99,12.7-7.28-.05-12.97-5.94-12.78-13.23,.18-7.14,5.99-12.68,13.15-12.54,7.15,.14,12.72,5.9,12.62,13.07Z"/><path class="cls-1" d="M149.08,241.29c-.01,7.16-5.67,12.83-12.83,12.86-7.29,.03-13.04-5.78-12.94-13.07,.1-7.17,5.81-12.76,12.99-12.7,7.15,.05,12.79,5.75,12.78,12.91Z"/></g></g></svg>