<?xml version="1.0" encoding="UTF-8"?><svg id="Layer_2" xmlns="http://www.w3.org/2000/svg" viewBox="0 0 262.21 383.28"><defs><style>.cls-1{fill:#02004f;}.cls-2{fill:#ff9700;}.cls-3{fill:#ff002b;}</style></defs><g id="Layer_1-2"><g><path class="cls-1" d="M232.68,43.42c.05,4.49,.09,8.97,.14,13.46-75.1,0-150.2,0-225.31-.01-1.45,0-3,.45-4.36-.53,16.67-4.16,33.33-8.32,49.99-12.47,.96-.24,1.95-.36,2.93-.53,17.57-4.46,35.14-8.96,52.73-13.38C147.49,20.23,186.19,10.54,224.89,.84c.71-.17,1.52-.09,1.98-.84h3.74c.96,1.38,2.29,2.47,2.27,4.46-.13,12.99-.15,25.98-.2,38.96Z"/><path class="cls-2" d="M261.94,366.63c.06-100.96,.05-201.92,.04-302.88,0-5.66-1.12-6.78-6.72-6.8-7.48-.03-14.96-.05-22.44-.07-75.1,0-150.2,0-225.31-.01-1.45,0-3,.45-4.36-.53-2.94,.08-3.07,1.96-3.07,4.32,.03,105.48,.01,210.96,.01,316.44,0,1.32-.45,2.77,.71,3.91,1.15,2.73,3.57,2.23,5.76,2.23,83,0,165.99,0,248.98,0,.62,0,1.25-.02,1.87,0,1.76,.05,3.18-.5,3.9-2.25,1.57-4.72,.63-9.58,.63-14.37Zm-194.99-77.19c1.27-2.17,3.3-2.81,5.73-2.79,7.48,.05,14.96,.01,22.45,.01,31.3,0,62.61-.01,93.92,.01,5.52,.01,8.5,4.16,6.18,8.47-1.38,2.58-3.71,2.94-6.37,2.93-9.67-.02-19.33-.03-29-.03s-19.33,.01-29,.01h-29.18c-9.73,0-19.46-.01-29.19-.03-5.12,0-7.94-4.46-5.54-8.58Zm28.29,39.8c-1.12,0-2.29,.08-3.34-.22-2.9-.82-4.9-2.74-4.81-5.86,.08-3.09,2.07-5,5.07-5.63,1.19-.26,2.47-.14,3.72-.14,23.41,0,46.81,0,70.22,0,.75,0,1.5-.02,2.24,0,3.83,.16,6.83,2.86,6.74,6.05-.08,3.08-2.96,5.68-6.63,5.78-3.73,.1-7.47,.03-11.21,.03h-26.14c-11.96,0-23.91,0-35.86-.01ZM58.81,134.95c7.53-8.89,17.45-11.2,28.46-8.33,17.5,4.56,31.62,26.53,28.81,44.36-.14,.85-.2,1.82-.65,2.51-2.7,4.1-.5,6.64,2.47,9.37,4.58,4.22,8.92,8.72,13.25,13.2,1.31,1.36,2.12,1.52,3.52,.06,4.13-4.33,8.42-8.51,12.67-12.73,.93-.91,1.62-1.67,.88-3.17-3.58-7.26-2.7-14.61,.31-21.71,5.79-13.64,15.58-24.24,26.63-33.75,2.56-2.2,6.07-1.71,8.06,.64,2.16,2.55,2.02,5.8-.79,8.31-5.7,5.08-10.92,10.59-15.61,16.6-3.08,3.95-5.74,8.15-7.6,12.82-1.11,2.79-1.8,5.64-1.12,9.5,9.88-9.88,19.21-19.22,28.54-28.56,.89-.88,1.76-1.77,2.66-2.63,3.1-2.99,6.83-3.29,9.23-.76,2.32,2.44,1.99,5.95-.96,8.91-9.41,9.46-18.87,18.89-28.3,28.33-.86,.86-1.68,1.76-2.83,2.97,4.21,.92,7.66-.25,11-1.8,10.25-4.79,18.28-12.44,25.97-20.49,.95-1,1.8-2.11,2.86-2.95,2.52-1.99,5.17-1.81,7.47,.29,2.17,1.99,2.91,4.83,.97,7.08-11.31,13.16-23.55,25.15-41.22,29.46-4.92,1.19-9.69,.64-14.2-1.51-1.68-.81-2.64-.52-3.85,.73-3.99,4.12-8,8.24-12.19,12.15-1.86,1.73-1.62,2.72,.06,4.39,11.71,11.57,23.33,23.24,34.96,34.9,1.04,1.05,2.09,2.17,2.83,3.44,1.45,2.5,.85,4.86-1.19,6.77-2.05,1.92-4.47,2.14-6.87,.71-1.05-.62-1.9-1.6-2.78-2.48-11.47-11.46-23.02-22.85-34.33-34.47-2.5-2.57-3.78-2.22-6.07,.12-11.27,11.49-22.71,22.81-34.09,34.18-.71,.71-1.37,1.47-2.14,2.09-2.52,2.02-5.65,1.94-7.79-.24-2.24-2.26-2.48-4.83-.66-7.44,.77-1.11,1.79-2.06,2.76-3.03,11.46-11.48,22.89-22.98,34.43-34.37,1.76-1.74,2.19-2.76,.16-4.67-5.26-4.96-10.31-10.15-15.39-15.3-1.14-1.16-2.03-1.8-3.83-.97-6.03,2.78-12.41,2.79-18.66,1.09-13.55-3.71-24.08-11.48-29.82-24.55-4.52-10.29-3.41-20.37,3.98-29.07Z"/><path class="cls-1" d="M214.71,163.02c-11.31,13.16-23.55,25.15-41.22,29.46-4.92,1.19-9.69,.64-14.2-1.51-1.68-.81-2.64-.52-3.85,.73-3.99,4.12-8,8.24-12.19,12.15-1.86,1.73-1.62,2.72,.06,4.39,11.71,11.57,23.33,23.24,34.96,34.9,1.04,1.05,2.09,2.17,2.83,3.44,1.45,2.5,.85,4.86-1.19,6.77-2.05,1.92-4.47,2.14-6.87,.71-1.05-.62-1.9-1.6-2.78-2.48-11.47-11.46-23.02-22.85-34.33-34.47-2.5-2.57-3.78-2.22-6.07,.12-11.27,11.49-22.71,22.81-34.09,34.18-.71,.71-1.37,1.47-2.14,2.09-2.52,2.02-5.65,1.94-7.79-.24-2.24-2.26-2.48-4.83-.66-7.44,.77-1.11,1.79-2.06,2.76-3.03,11.46-11.48,22.89-22.98,34.43-34.37,1.76-1.74,2.19-2.76,.16-4.67-5.26-4.96-10.31-10.15-15.39-15.3-1.14-1.16-2.03-1.8-3.83-.97-6.03,2.78-12.41,2.79-18.66,1.09-13.55-3.71-24.08-11.48-29.82-24.55-4.52-10.29-3.41-20.37,3.98-29.07,7.53-8.89,17.45-11.2,28.46-8.33,17.5,4.56,31.62,26.53,28.81,44.36-.14,.85-.2,1.82-.65,2.51-2.7,4.1-.5,6.64,2.47,9.37,4.58,4.22,8.92,8.72,13.25,13.2,1.31,1.36,2.12,1.52,3.52,.06,4.13-4.33,8.42-8.51,12.67-12.73,.93-.91,1.62-1.67,.88-3.17-3.58-7.26-2.7-14.61,.31-21.71,5.79-13.64,15.58-24.24,26.63-33.75,2.56-2.2,6.07-1.71,8.06,.64,2.16,2.55,2.02,5.8-.79,8.31-5.7,5.08-10.92,10.59-15.61,16.6-3.08,3.95-5.74,8.15-7.6,12.82-1.11,2.79-1.8,5.64-1.12,9.5,9.88-9.88,19.21-19.22,28.54-28.56,.89-.88,1.76-1.77,2.66-2.63,3.1-2.99,6.83-3.29,9.23-.76,2.32,2.44,1.99,5.95-.96,8.91-9.41,9.46-18.87,18.89-28.3,28.33-.86,.86-1.68,1.76-2.83,2.97,4.21,.92,7.66-.25,11-1.8,10.25-4.79,18.28-12.44,25.97-20.49,.95-1,1.8-2.11,2.86-2.95,2.52-1.99,5.17-1.81,7.47,.29,2.17,1.99,2.91,4.83,.97,7.08Z"/><path class="cls-3" d="M195.23,295.14c-1.38,2.58-3.71,2.94-6.37,2.93-9.67-.02-19.33-.03-29-.03s-19.33,.01-29,0c-9.73,0-19.45,.01-29.18,.01s-19.46-.01-29.19-.03c-5.12,0-7.94-4.46-5.54-8.58,1.27-2.17,3.3-2.81,5.73-2.79,7.48,.05,14.96,.01,22.45,.01,31.3,0,62.61-.01,93.92,.01,5.52,.01,8.5,4.16,6.18,8.47Z"/><path class="cls-3" d="M175.08,323.44c-.08,3.08-2.96,5.68-6.63,5.78-3.73,.1-7.47,.03-11.21,.03h-26.14c-11.96,0-23.91,0-35.86-.01-1.12,0-2.29,.08-3.34-.22-2.9-.82-4.9-2.74-4.81-5.86,.08-3.09,2.07-5,5.07-5.63,1.19-.26,2.47-.14,3.72-.14,23.41,0,46.81,0,70.22,0,.75,0,1.5-.02,2.24,0,3.83,.16,6.83,2.86,6.74,6.05Z"/></g></g></svg>