<?xml version="1.0" encoding="UTF-8"?><svg id="Layer_2" xmlns="http://www.w3.org/2000/svg" viewBox="0 0 333 338.79"><defs><style>.cls-1{fill:none;stroke:#fff;stroke-miterlimit:10;stroke-width:3px;}</style></defs><g id="Layer_1-2"><g><path class="cls-1" d="M215.57,36.26c5.74,15.16,11.48,30.31,17.17,45.49,.36,.97,.34,2.12,.34,3.19,.01,39.71,0,79.43,0,119.14-2.65,.02-5.31,.22-7.94,0-2.63-.23-4.14,.73-5.45,3.01-4.68,8.12-9.55,16.13-14.39,24.16-.7,1.16-1.17,2.29-1.16,3.69,.07,16.73,.09,33.45,.12,50.18-.05,17.34-.09,34.68-.14,52.02-3.13,.03-6.26,.09-9.39,.09-63.04,0-126.09-.02-189.13,.08-3.36,0-4.1-.92-4.1-4.17,.09-82.45,.07-164.9,.08-247.35,0-1.55-.05-3.08,.53-4.62,5.68-14.96,11.29-29.94,16.92-44.91,23.09,0,46.18-.01,69.26-.02-7.13,14.32-14.23,28.67-21.43,42.96-1.18,2.33-1.68,4.64-1.67,7.25,.05,37.83,.04,75.67,.04,113.5v3.43c1.22,.21,1.57-.57,2.04-1.04,8.36-8.33,16.81-16.59,24.98-25.11,1.93-2.01,2.72-1.65,4.38,.04,7.76,7.91,15.63,15.72,23.5,23.53,.78,.78,1.32,2.05,2.97,1.97v-3.97c0-37.59,0-75.19,0-112.78,0-1.8,0-3.54,.87-5.26,7.49-14.82,14.91-29.67,22.36-44.51,23.08,0,46.16,.01,69.24,.02ZM104.74,247.73c-1.85-10.93-5.65-20.17-11.08-28.78-1.6-2.53-3.76-3.83-6.67-3.11-2.55,.63-4.08,2.45-4.38,5.15-.21,1.95,.81,3.46,1.78,4.99,8.1,12.75,10.67,26.76,9.57,42.16-.78-1.47-1.29-2.51-1.86-3.52-12.69-22.8-32.04-35.22-58.04-37.38-2.86-.24-3.8,.61-3.58,3.53,.84,10.96,3.55,21.35,9.18,30.84,11.67,19.66,28.77,31.28,51.49,34.4,2.13,.29,3.18,.95,3.07,3.37-.2,4.33-.07,8.67-.05,13.01,.01,4.82,2.15,7.5,5.89,7.43,3.62-.07,5.66-2.67,5.67-7.29,.01-10.97,0-21.93,0-32.9q0-5.94,5.74-6.99c.95-.17,1.88-.4,2.83-.58,29.73-5.63,53.85-33.7,55.12-63.94,.15-3.46-.9-4.3-4.16-4.03-20.35,1.73-37.11,10.26-50.1,26.07-4.18,5.1-7.34,10.85-10.43,17.55Z"/><path class="cls-1" d="M146.33,36.24c-7.44,14.84-14.87,29.7-22.36,44.51-.87,1.72-.87,3.46-.87,5.26,0,37.59,0,75.19,0,112.78v3.97c-1.66,.08-2.19-1.19-2.97-1.97-7.87-7.81-15.74-15.61-23.5-23.53-1.66-1.69-2.45-2.05-4.38-.04-8.17,8.52-16.62,16.78-24.98,25.11-.47,.47-.82,1.24-2.04,1.04v-3.43c0-37.83,.02-75.67-.04-113.5,0-2.6,.5-4.91,1.67-7.25,7.2-14.29,14.3-28.63,21.43-42.96,.01-11.53,.03-23.06,.04-34.59,19.32,0,38.65,0,57.97,0,0,11.53,.02,23.06,.02,34.59Z"/><path class="cls-1" d="M204.26,285.1c-.03-16.73-.05-33.45-.12-50.18,0-1.4,.46-2.53,1.16-3.69,4.84-8.03,9.71-16.04,14.39-24.16,1.31-2.27,2.82-3.23,5.45-3.01,2.63,.23,5.29,.02,7.94,0,3.84,0,7.68,0,11.52,.01,.02,6.26,.05,12.53,.07,18.79-.73,.62-1.51,1.19-2.19,1.86-4.04,3.99-4.83,9.99-1.92,14.5,3,4.65,8.63,6.56,13.92,4.63,4.21-1.54,6.73-4.7,7.42-9.01,.82-5.15-1.44-9.1-5.69-11.98,.02-6.26,.05-12.53,.07-18.79,6.5,0,13.01,.16,19.5-.06,2.68-.09,4.18,.92,5.45,3.1,4.72,8.09,9.53,16.13,14.37,24.16,.71,1.18,1.16,2.28,1.16,3.68-.06,16.74-.08,33.47-.11,50.21l-92.39-.07Z"/><path class="cls-1" d="M204.26,285.1c30.8,.02,61.59,.05,92.39,.07,.04,5.77,.08,11.54,.12,17.3,0,11.54,0,23.09,0,34.63-30.89,0-61.77,0-92.65,.01,.05-17.34,.09-34.68,.14-52.02Z"/><path class="cls-1" d="M256.27,204.09c-.02,6.26-.05,12.53-.07,18.79-3.84-1.91-7.69-1.91-11.53,0-.02-6.26-.05-12.53-.07-18.79,.25-6.1-.21-12.19,1.34-18.27,6.19-24.25,35.06-35.81,56.12-22.33,11.91,7.63,17.74,18.65,17.79,32.64,.11,35.41,.05,70.83,.06,106.24-3.88,0-7.76,0-11.64,0,.01-35.15-.02-70.3,.06-105.45,.02-8.28-2.79-15.13-8.81-20.88-11.36-10.85-31.93-7.68-39.62,5.98-3.96,7.03-3.85,14.48-3.64,22.06Z"/><path class="cls-1" d="M88.34,1.64c-.01,11.53-.03,23.06-.04,34.59-23.09,0-46.18,.01-69.26,.02-.03-10.71-.02-21.42-.14-32.13-.02-2.07,.62-2.63,2.65-2.62,22.26,.1,44.53,.11,66.79,.14Z"/><path class="cls-1" d="M146.33,36.24c0-11.53-.02-23.06-.02-34.59,22.27-.03,44.53-.06,66.8-.12,1.64,0,2.67,.12,2.64,2.25-.14,10.83-.13,21.66-.18,32.49-23.08,0-46.16-.01-69.24-.02Z"/><path class="cls-1" d="M308.28,302.38c3.88,0,7.76,0,11.64,0,3,.04,6,.15,9,.08,1.71-.04,2.61,.24,2.59,2.3-.09,10.08-.08,20.17-.01,30.26,.01,1.76-.63,2.23-2.3,2.22-10.8-.09-21.61-.1-32.41-.13,0-11.54,0-23.09,0-34.63,3.84-.03,7.67-.07,11.51-.1Z"/><path class="cls-1" d="M104.74,247.73c3.09-6.7,6.25-12.45,10.43-17.55,12.99-15.82,29.75-24.34,50.1-26.07,3.26-.28,4.3,.57,4.16,4.03-1.27,30.23-25.39,58.31-55.12,63.94-.94,.18-1.88,.4-2.83,.58q-5.74,1.05-5.74,6.99c0,10.97,0,21.93,0,32.9,0,4.62-2.05,7.22-5.67,7.29-3.74,.08-5.88-2.6-5.89-7.43-.01-4.34-.15-8.68,.05-13.01,.11-2.42-.94-3.08-3.07-3.37-22.72-3.13-39.83-14.74-51.49-34.4-5.63-9.49-8.34-19.88-9.18-30.84-.22-2.92,.72-3.76,3.58-3.53,26,2.16,45.35,14.58,58.04,37.38,.56,1.01,1.08,2.04,1.86,3.52,1.1-15.41-1.46-29.42-9.57-42.16-.97-1.53-2-3.04-1.78-4.99,.3-2.7,1.83-4.52,4.38-5.15,2.91-.71,5.07,.58,6.67,3.11,5.42,8.61,9.22,17.85,11.08,28.78Z"/></g></g></svg>