<?xml version="1.0" encoding="UTF-8"?><svg id="Layer_2" xmlns="http://www.w3.org/2000/svg" viewBox="0 0 333.02 242.92"><defs><style>.cls-1{fill:none;stroke:#fff;stroke-miterlimit:10;stroke-width:3px;}</style></defs><g id="Layer_1-2"><g><path class="cls-1" d="M196.76,84.33c11.26-13.05,25.83-20.18,42.54-22.99,16.01-2.7,31.93-1.78,47.52,3,23.23,7.12,37.19,22.57,41.71,46.42,.97,5.12,1.36,10.32,1.35,15.53-.03,30.77,0,61.55,0,92.32,0,5.31,.36,10.59,1.63,15.79l-.41,3.06c-2.19,3.66-5.86,3.53-11.22,2.71-8.19-1.24-16.5-1.08-24.67,.28-5.49,.91-6.17-.96-6.45-4.04-.45-5.05-.96-10.1-.97-15.33-5.43,6.47-11.47,11.83-19.53,14.47-1.04-.3-1.53-1.15-1.91-2.03-3.53-8.01-7.5-15.81-11.11-23.78-.58-1.28-1.61-2.65-.53-4.2,0,0,5.93-1.72,8.81-2.89,12.52-5.07,18.12-15.03,19.74-27.78,.49-3.81,.9-7.64,.76-11.51-.08-2.3-1.01-2.98-3.22-2.65-12.06,1.8-24.12,3.64-36.17,5.54-2.85,.45-8.36,2.01-8.36,2.01-2.52-2.82-3.55-6.46-5.13-9.76-2.57-5.36-5.3-10.65-7.55-16.16-.47-1.15-1.29-2.27-.48-3.6,3.16-1.4,6.31-1.9,9.54-2.38,12.38-1.81,24.75-3.69,37.13-5.5,2.22-.32,4.44-.75,6.57-1.48,5.4-1.86,8.27-6.71,7.42-12.32-1.32-8.75-6.41-14.57-14.65-16.97-13.55-3.95-26.5-3.25-37.27,7.4-3.69,3.64-5.72,8.2-6.87,13.2-1.13,4.93-.86,4.89-5.85,3.73-1.25-.29-2.8-.72-4.29-1.04-2.54-3.57-18.13-37.53-18.07-39.05Z"/><path class="cls-1" d="M248.14,232.9c-.36-1-.73-2-1.21-2.96-4.47-8.84-8.5-17.89-12.75-26.83-3-6.63-6.31-13.12-9.23-19.78-6.31-12.83-12.12-25.9-18.39-38.75-3.69-8.6-8.2-16.82-11.79-25.45-1.71-3.42-3.38-6.85-4.97-10.33-1.23-2.65-2.04-5.61-4.4-7.63-.29-.58-.59-1.14-.87-1.72-14.54-30.86-29.1-61.7-43.54-92.6-1.79-3.82-4.29-5.5-8.49-5.34-5.56,.21-11.14,.22-16.7,0-4.11-.16-6.58,1.55-8.26,5.21-6.33,13.8-12.78,27.53-19.21,41.3C59.79,109.15,31.27,170.29,2.74,231.44c-2.82,6.05-.79,9.3,5.8,9.31,15.96,0,31.91-.05,47.88,.05,3.49,.02,5.53-1.38,6.92-4.52,3.37-7.63,7.03-15.13,10.36-22.77,1.31-3,3.32-4.13,6.46-4.13,29.56,.04,59.11,.05,88.67,0,3.29,0,5.34,1.24,6.71,4.31,3.38,7.62,7.02,15.13,10.52,22.7,1.15,2.48,2.7,4.36,5.73,4.36l52.68-.13c3.89-1.49,5.05-3.91,3.68-7.71Zm-101.6-76.35c-14.99-.07-29.99-.03-44.99-.05-.29,0-.58-.13-1.25-.27,8.04-17.24,16.02-34.35,23.99-51.45,1.29,.08,1.29,1.15,1.61,1.83,7.28,15.72,14.53,31.46,21.75,47.21,.55,1.2,1.98,2.76-1.12,2.74Z"/><path class="cls-1" d="M244.47,240.61c4.98-2.08,4.82-4.47,2.97-9.08-4.35-9.49-8.81-18.93-13.22-28.38,.42,.15,11.86,2.78,17.39,2.7,1.05-.01,3.09-.3,3.09-.3,3.99,10.12,9.13,20.08,13.55,30.01-5.16,2.7-10.84,3.53-16.49,4.29-2.18,.29-4.95,.57-7.3,.77Z"/><path class="cls-1" d="M194.74,119.06c-2.87-6.02-6.49-11.87-9.35-17.89,2.89-6,6.67-12,11.37-16.84,2.18,4.35,17.53,37.56,18.07,39.05-.89-.17-13.75-3.15-20.08-4.32Z"/><path class="cls-1" d="M236.26,168.26c-6.74,2.41-9.85,8.39-11.18,15.21-2.94-4.61-13.46-28.03-17.22-36.07,2.74-4.29,10.27-6.81,15.23-8.66,3.21,7.96,7.11,15.99,10.84,23.71,.88,1.82,1.89,3.83,2.32,5.81Z"/></g></g></svg>