<?xml version="1.0" encoding="UTF-8"?><svg id="Layer_2" xmlns="http://www.w3.org/2000/svg" viewBox="0 0 305.33 250.05"><defs><style>.cls-1{fill:#02004f;}.cls-2{fill:#ff9700;}.cls-3{fill:#ff002b;}.cls-4{fill:#cae1fe;}</style></defs><g id="Layer_1-2"><g><path class="cls-2" d="M274.31,52.4l.03,.29c-.99-.07-1.97-.2-2.96-.2-89.37,0-178.75,0-268.12,0-.89,0-1.78,.06-2.68,.09-.19,.16-.39,.32-.58,.48V215.52c.34,.7,.79,1.36,.99,2.09,2.12,7.3,10.29,12.9,18.13,12.86,30-.17,60.01-.08,90.02-.08-1.4-4.08-2.72-8.18-4.21-12.22-2.31-6.26-4.75-12.48-7.12-18.72-3.54-9.64-7.14-19.25-10.54-28.93-.45-1.27-.41-3.36,.36-4.23,.68-.77,2.81-.8,4.08-.41,3.49,1.07,6.86,2.53,10.28,3.83,17.55,6.53,35.11,13.06,52.65,19.61,1.37,.52,2.67,1.19,4.01,1.8,3.5,1.16,7.05,2.17,10.47,3.53,2.52,1,2.04,2.93,.83,4.79-5.96,5.96-11.9,11.91-17.86,17.86,3.75,3.67,7.51,7.33,11.28,10.98,.77,.75,1.61,1.44,2.43,2.15,40.23,0,80.47,.06,120.71-.16,3.46-.02,7.1-1.53,10.3-3.08,4.75-2.3,6.63-7.08,8.52-11.67V52.44c-10.34-.02-20.68-.03-31.02-.05ZM102.55,111.54c-5.02,14.4-10.09,28.78-15.15,43.17-.75,2.11-2.03,3.67-4.51,3.65-2.54-.02-3.94-1.51-4.72-3.8-3.43-10.11-6.89-20.22-10.57-31.03-1.84,5.07-3.45,9.51-5.05,13.96-2,5.59-4,11.19-6,16.78-.81,2.28-2.01,4.17-4.81,4.08-2.7-.09-3.91-1.83-4.72-4.21-4.75-13.97-9.64-27.89-14.26-41.9-.54-1.63-.24-4.04,.66-5.46,.63-1,3.28-1.69,4.42-1.17,1.56,.7,3.07,2.48,3.68,4.13,3.18,8.64,6.07,17.39,9.06,26.1,.32,.91,.67,1.82,1.33,3.64,1.78-4.87,3.28-8.97,4.76-13.07,2.15-5.96,4.31-11.92,6.42-17.9,.8-2.3,2.19-3.76,4.76-3.67,2.44,.08,3.68,1.57,4.42,3.74,3.09,9.1,6.23,18.18,9.35,27.26,.31,.91,.66,1.8,1.27,3.47,1.38-3.78,2.52-6.86,3.61-9.96,2.2-6.26,4.37-12.53,6.56-18.8,.29-.83,.6-1.68,1.01-2.47,1.29-2.58,3.48-3.55,5.85-2.65,2.4,.91,3.57,3.39,2.62,6.1Zm85.11,.52c-4.93,14.12-9.9,28.22-14.87,42.32-.76,2.18-1.93,3.98-4.58,3.98s-4.04-1.63-4.85-4.02c-3.4-10.03-6.85-20.04-10.51-30.76-1.6,4.36-3,8.12-4.36,11.89-2.2,6.15-4.4,12.31-6.57,18.47-.84,2.39-1.99,4.44-4.89,4.4-2.87-.03-4-2-4.83-4.44-4.6-13.5-9.28-26.97-13.92-40.45-.32-.94-.67-1.88-.8-2.85-.31-2.43,.52-4.34,3.01-5.11,2.52-.78,4.88,.33,5.79,2.84,1.92,5.31,3.69,10.67,5.53,16.01,1.65,4.76,3.32,9.52,4.98,14.28,.23,.02,.46,.03,.69,.06,1.7-4.72,3.4-9.43,5.1-14.15,1.92-5.31,3.86-10.61,5.73-15.93,.76-2.15,2-3.7,4.43-3.71,2.66-.02,4.07,1.53,4.89,3.98,3.03,9.01,6.14,17.99,9.23,26.98,.31,.91,.66,1.82,1.28,3.52,1.57-4.35,2.89-7.98,4.18-11.64,2.2-6.26,4.37-12.53,6.57-18.79,.83-2.4,2.47-3.94,5.07-3.75,2.33,.17,3.81,1.69,4.12,4.02,.13,.92-.12,1.97-.44,2.87Zm84.16-.91c-.14,.68-.4,1.33-.63,1.99-3.62,10.27-7.24,20.54-10.87,30.81-1.22,3.45-2.49,6.89-3.64,10.37-.8,2.41-2.2,4.09-4.87,4.02-2.49-.07-3.8-1.71-4.57-4-3.03-9.01-6.14-17.99-9.23-26.98-.31-.91-.66-1.81-1.34-3.64-1.58,4.33-2.89,7.86-4.16,11.39-2.27,6.34-4.57,12.67-6.77,19.04-.81,2.35-2.08,4.17-4.75,4.19-2.66,.02-3.99-1.71-4.81-4.09-4.76-13.96-9.6-27.9-14.38-41.85-1.18-3.43-.21-6.09,2.41-6.89,3.02-.92,5.09,.41,6.38,4.12,3.4,9.8,6.8,19.6,10.42,30.04,2.02-5.61,3.84-10.61,5.64-15.62,1.77-4.95,3.57-9.88,5.27-14.84,.83-2.43,1.97-4.39,4.91-4.33,2.88,.06,4.02,1.96,4.84,4.42,3.05,9.11,6.2,18.18,9.33,27.26,.27,.8,.58,1.57,1.06,2.86,1.76-4.95,3.35-9.4,4.93-13.87,2.04-5.79,4-11.61,6.15-17.36,.9-2.4,2.85-3.55,5.46-2.85,2.68,.72,3.84,2.94,3.22,5.81Z"/><path class="cls-1" d="M305.33,14.95c-.39-.85-.82-1.69-1.18-2.57-3.02-7.35-8.53-11.56-16.43-12.21-4.43-.37-8.91-.02-13.37,.02-1.1-.02-2.19-.07-3.28-.07H21.67C10.22,.11,4.81,3.75,.56,14.33c-.1,.24-.37,.41-.56,.62V52.44c.19,.04,.39,.08,.58,.12,.9-.02,1.79-.09,2.68-.09,89.37,0,178.75,0,268.12,0,.99,0,1.97,.13,2.96,.2l-.03-.29c10.34,.02,20.68,.03,31.02,.05V14.95ZM34.4,34.87c-4.65-.09-8.69-4.14-8.55-8.57,.16-4.81,3.88-8.44,8.63-8.4,4.81,.03,8.48,3.72,8.44,8.49-.03,4.71-3.92,8.58-8.53,8.48Zm26.33-.03c-4.67-.02-8.66-3.96-8.6-8.49,.07-4.75,3.82-8.46,8.56-8.46,4.82,0,8.48,3.63,8.49,8.43,.02,4.76-3.74,8.55-8.46,8.52Zm26.35-.19c-4.87,.02-8.6-3.51-8.72-8.25-.12-4.64,3.72-8.48,8.48-8.48,4.87-.02,8.56,3.55,8.58,8.3,.03,4.99-3.36,8.41-8.34,8.44Z"/><path class="cls-4" d="M.58,52.56c-.19,.16-.39,.32-.58,.48v-.6c.19,.04,.39,.08,.58,.12Z"/><path class="cls-3" d="M167.24,242.97c-1.98,1.8-3.85,3.73-5.69,5.67-1.83,1.94-3.46,1.83-5.3-.04-5.08-5.17-10.26-10.23-15.35-15.39-.76-.76-1.26-1.77-2.15-3.05-3.86,3.9-7.04,7.12-10.23,10.34-2.38,2.39-4.76,4.78-7.16,7.15-2.89,2.86-4.52,2.54-6-1.31-1.69-4.43-3.26-8.91-4.93-13.35-.33-.9-.86-1.73-1.3-2.59-1.4-4.08-2.72-8.18-4.21-12.22-2.31-6.26-4.75-12.48-7.12-18.72-3.54-9.64-7.14-19.25-10.54-28.93-.45-1.27-.41-3.36,.36-4.23,.68-.77,2.81-.8,4.08-.41,3.49,1.07,6.86,2.53,10.28,3.83,17.55,6.53,35.11,13.06,52.65,19.61,1.37,.52,2.67,1.19,4.01,1.8,3.5,1.16,7.05,2.17,10.47,3.53,2.52,1,2.04,2.93,.83,4.79-5.96,5.96-11.9,11.91-17.86,17.86,3.75,3.67,7.51,7.33,11.28,10.98,.77,.75,1.61,1.44,2.43,2.15,.19,.38,.39,.77,.59,1.15,5.87,4.99,6.8,5.98,.85,11.39Z"/><path class="cls-1" d="M102.55,111.54c-5.02,14.4-10.09,28.78-15.15,43.17-.75,2.11-2.03,3.67-4.51,3.65-2.54-.02-3.94-1.51-4.72-3.8-3.43-10.11-6.89-20.22-10.57-31.03-1.84,5.07-3.45,9.51-5.05,13.96-2,5.59-4,11.19-6,16.78-.81,2.28-2.01,4.17-4.81,4.08-2.7-.09-3.91-1.83-4.72-4.21-4.75-13.97-9.64-27.89-14.26-41.9-.54-1.63-.24-4.04,.66-5.46,.63-1,3.28-1.69,4.42-1.17,1.56,.7,3.07,2.48,3.68,4.13,3.18,8.64,6.07,17.39,9.06,26.1,.32,.91,.67,1.82,1.33,3.64,1.78-4.87,3.28-8.97,4.76-13.07,2.15-5.96,4.31-11.92,6.42-17.9,.8-2.3,2.19-3.76,4.76-3.67,2.44,.08,3.68,1.57,4.42,3.74,3.09,9.1,6.23,18.18,9.35,27.26,.31,.91,.66,1.8,1.27,3.47,1.38-3.78,2.52-6.86,3.61-9.96,2.2-6.26,4.37-12.53,6.56-18.8,.29-.83,.6-1.68,1.01-2.47,1.29-2.58,3.48-3.55,5.85-2.65,2.4,.91,3.57,3.39,2.62,6.1Z"/><path class="cls-1" d="M187.66,112.05c-4.93,14.12-9.9,28.22-14.87,42.32-.76,2.18-1.93,3.98-4.58,3.98s-4.04-1.63-4.85-4.02c-3.4-10.03-6.85-20.04-10.51-30.76-1.6,4.36-3,8.12-4.36,11.89-2.2,6.15-4.4,12.31-6.57,18.47-.84,2.39-1.99,4.44-4.89,4.4-2.87-.03-4-2-4.83-4.44-4.6-13.5-9.28-26.97-13.92-40.45-.32-.94-.67-1.88-.8-2.85-.31-2.43,.52-4.34,3.01-5.11,2.52-.78,4.88,.33,5.79,2.84,1.92,5.31,3.69,10.67,5.53,16.01,1.65,4.76,3.32,9.52,4.98,14.28,.23,.02,.46,.03,.69,.06,1.7-4.72,3.4-9.43,5.1-14.15,1.92-5.31,3.86-10.61,5.73-15.93,.76-2.15,2-3.7,4.43-3.71,2.66-.02,4.07,1.53,4.89,3.98,3.03,9.01,6.14,17.99,9.23,26.98,.31,.91,.66,1.82,1.28,3.52,1.57-4.35,2.89-7.98,4.18-11.64,2.2-6.26,4.37-12.53,6.57-18.79,.83-2.4,2.47-3.94,5.07-3.75,2.33,.17,3.81,1.69,4.12,4.02,.13,.92-.12,1.97-.44,2.87Z"/><path class="cls-1" d="M271.82,111.14c-.14,.68-.4,1.33-.63,1.99-3.62,10.27-7.24,20.54-10.87,30.81-1.22,3.45-2.49,6.89-3.64,10.37-.8,2.41-2.2,4.09-4.87,4.02-2.49-.07-3.8-1.71-4.57-4-3.03-9.01-6.14-17.99-9.23-26.98-.31-.91-.66-1.81-1.34-3.64-1.58,4.33-2.89,7.86-4.16,11.39-2.27,6.34-4.57,12.67-6.77,19.04-.81,2.35-2.08,4.17-4.75,4.19-2.66,.02-3.99-1.71-4.81-4.09-4.76-13.96-9.6-27.9-14.38-41.85-1.18-3.43-.21-6.09,2.41-6.89,3.02-.92,5.09,.41,6.38,4.12,3.4,9.8,6.8,19.6,10.42,30.04,2.02-5.61,3.84-10.61,5.64-15.62,1.77-4.95,3.57-9.88,5.27-14.84,.83-2.43,1.97-4.39,4.91-4.33,2.88,.06,4.02,1.96,4.84,4.42,3.05,9.11,6.2,18.18,9.33,27.26,.27,.8,.58,1.57,1.06,2.86,1.76-4.95,3.35-9.4,4.93-13.87,2.04-5.79,4-11.61,6.15-17.36,.9-2.4,2.85-3.55,5.46-2.85,2.68,.72,3.84,2.94,3.22,5.81Z"/><path class="cls-2" d="M69.19,26.32c.02,4.76-3.74,8.55-8.46,8.52-4.67-.02-8.66-3.96-8.6-8.49,.07-4.75,3.82-8.46,8.56-8.46,4.82,0,8.48,3.63,8.49,8.43Z"/><path class="cls-2" d="M42.94,26.39c-.03,4.71-3.92,8.58-8.53,8.48-4.65-.09-8.69-4.14-8.55-8.57,.16-4.81,3.88-8.44,8.63-8.4,4.81,.03,8.48,3.72,8.44,8.49Z"/><path class="cls-2" d="M95.42,26.21c.03,4.99-3.36,8.41-8.34,8.44-4.87,.02-8.6-3.51-8.72-8.25-.12-4.64,3.72-8.48,8.48-8.48,4.87-.02,8.56,3.55,8.58,8.3Z"/></g></g></svg>